<?xml version="1.0" encoding="UTF-8"?>
<svg version="1.1" xmlns="http://www.w3.org/2000/svg" width="2550" height="1762">
<path d="M0 0 C4.06649728 0.00181593 8.13299259 0.00142843 12.19949007 0.00050974 C12.88601418 0.00035651 13.57253829 0.00020327 14.27986617 0.0000454 C15.67735357 -0.00027454 17.07484098 -0.00059875 18.47232838 -0.00092719 C31.46273135 -0.00375217 44.45312717 -0.00054722 57.44352897 0.00487317 C68.37558738 0.00929587 79.30763497 0.00855339 90.23969316 0.00395441 C155.99121973 -0.02299135 221.73368769 0.05691982 287.4784627 1.1343255 C283.10798083 8.84992571 283.10798083 8.84992571 280.8847127 11.53666925 C280.4182332 12.10812677 279.95175371 12.67958429 279.47113848 13.26835871 C278.73226397 14.16107477 278.73226397 14.16107477 277.9784627 15.0718255 C273.73731292 20.28243675 269.60910135 25.55302125 265.6034627 30.9468255 C261.30066389 36.73420328 256.9205713 42.45316636 252.4784627 48.1343255 C248.08383743 53.75687842 243.74195183 59.41167431 239.4784627 65.1343255 C234.64559219 71.62122656 229.70035221 78.01347028 224.71796465 84.38603449 C220.10951438 90.29227781 215.59319106 96.26301545 211.12104082 102.27299738 C207.56799143 107.04479677 207.56799143 107.04479677 206.4784627 108.1343255 C203.76380448 108.25520046 201.07365584 108.30991576 198.35761309 108.32377863 C197.48873838 108.33210592 196.61986368 108.34043322 195.72465944 108.34901285 C192.75849982 108.37609379 189.7923361 108.3958581 186.82611895 108.4155755 C184.66861982 108.4332597 182.51112371 108.4513168 180.35363054 108.46971369 C175.6115275 108.50909401 170.86941285 108.54504285 166.12726641 108.57878351 C159.77446387 108.62429507 153.42174769 108.67715325 147.0690217 108.73222971 C114.88801766 109.0092957 82.70786625 109.16258977 50.52573365 109.22439432 C43.41381718 109.23845761 36.30192338 109.25706685 29.19002581 109.27861261 C28.18488139 109.28164518 27.17973697 109.28467775 26.14413363 109.28780222 C22.08439035 109.30016056 18.02464775 109.31268239 13.96490681 109.32578897 C1.83750656 109.36487374 -10.28968641 109.38838561 -22.41715187 109.38655782 C-30.1344552 109.38665446 -37.85158914 109.40475454 -45.56882721 109.43632293 C-50.07696627 109.45409754 -54.58473174 109.46339943 -59.09289694 109.45090723 C-63.26439999 109.43947239 -67.43519651 109.45118567 -71.60660517 109.48064756 C-73.11957567 109.48727108 -74.6326118 109.48552061 -76.14555585 109.47438955 C-84.87520324 109.41539686 -92.1611817 109.96449708 -99.5215373 115.1343255 C-102.35122449 118.21369097 -102.49378469 119.88455199 -102.9590373 124.0718255 C-102.74597039 128.42330742 -101.53840044 130.89671628 -98.5215373 134.1343255 C-89.22281186 139.85240225 -79.03215537 139.25280691 -68.49751234 139.05491114 C-66.186913 139.01172303 -63.87628986 138.97566819 -61.56554365 138.94127131 C-58.16309059 138.89024627 -54.76068788 138.83681709 -51.35829878 138.78169489 C-16.39918783 138.2234391 18.56102678 137.99274522 53.52433062 137.95607233 C58.31042642 137.95100542 63.09646968 137.94111606 67.88254595 137.92659235 C90.39398236 137.86177261 112.87465694 137.8701002 135.3612752 139.03666925 C136.53506196 139.09669091 136.53506196 139.09669091 137.73256159 139.15792513 C181.06676458 141.44789145 223.90443066 152.44378903 257.4784627 181.1343255 C258.30990801 181.83170832 259.14135332 182.52909113 259.99799395 183.24760675 C283.25311915 203.35918201 298.66420723 233.48617563 301.4784627 264.1343255 C302.3092259 278.02372305 301.84767893 291.61019702 298.4784627 305.1343255 C298.24498125 306.10643976 298.24498125 306.10643976 298.00678301 307.09819269 C290.14240298 338.69698911 267.58359867 364.1278 240.2284627 380.7593255 C211.02542489 397.91525874 177.82556144 405.58791252 144.4784627 409.3843255 C143.75037401 409.46740961 143.02228533 409.55049372 142.27213335 409.63609552 C125.73051967 411.49499776 109.33577282 412.28996649 92.70111895 412.267138 C90.91974166 412.26781523 89.13836446 412.26878868 87.35698748 412.27003717 C83.63648387 412.27150103 79.91600447 412.26940661 76.19550371 412.2646966 C71.5343712 412.25906976 66.8732967 412.26233621 62.21216631 412.26814032 C45.57492731 412.28567579 28.95403888 412.26495679 12.32611895 411.66166925 C-12.89101121 410.76343072 -38.13495548 410.78216567 -63.36552781 410.61666614 C-68.67533424 410.5818284 -73.98512575 410.54517922 -79.29491377 410.50764704 C-135.03744352 410.11542318 -190.77762348 410.00852043 -246.5215373 410.1343255 C-245.31438289 406.37980821 -244.20517235 403.29178185 -241.86919355 400.1030755 C-241.34567305 399.3821673 -240.82215254 398.6612591 -240.28276777 397.91850519 C-239.44189619 396.78783625 -239.44189619 396.78783625 -238.5840373 395.6343255 C-238.00283125 394.84187433 -237.42162519 394.04942316 -236.82280684 393.23295832 C-231.96900308 386.65085609 -226.95941233 380.20026031 -221.85552168 373.81108332 C-220.51105434 372.1211489 -219.178488 370.42251782 -217.8496623 368.720263 C-212.95279429 362.4481195 -207.99244279 356.23504406 -202.9590373 350.0718255 C-198.17828791 344.21419811 -193.50257665 338.29259477 -188.9199748 332.27885675 C-187.28992808 330.14174338 -185.65252047 328.01398246 -183.9980998 325.89604425 C-183.36037642 325.07656305 -183.36037642 325.07656305 -182.70976973 324.24052668 C-179.41735168 320.01237553 -179.41735168 320.01237553 -177.93823099 318.19954538 C-176.36556326 316.04296539 -176.36556326 316.04296539 -175.13066912 312.98484659 C-172.72459739 308.27067538 -170.52719461 304.12866554 -165.26480889 302.38774824 C-158.08916459 301.16461297 -150.791347 301.51905265 -143.54277754 301.67436457 C-141.07436892 301.67967251 -138.60594225 301.67922826 -136.13753462 301.67347956 C-130.82299963 301.67390802 -125.51104677 301.71405679 -120.19722509 301.79040003 C-112.47137821 301.90118916 -104.74651669 301.93789608 -97.01996363 301.95718929 C-84.42526962 301.9905157 -71.83166988 302.08105687 -59.23760176 302.20854425 C-47.10746977 302.33119501 -34.97756298 302.43080004 -22.84697676 302.49565363 C-21.73296092 302.50162484 -21.73296092 302.50162484 -20.59643971 302.50771669 C-15.38202451 302.53538995 -10.16760215 302.56154311 -4.95317793 302.5874505 C0.90456766 302.61675558 6.76231005 302.64662855 12.620049 302.67723322 C13.33417109 302.68092793 14.04829319 302.68462265 14.78405534 302.68842933 C24.52171994 302.73934561 34.25905638 302.80950828 43.99646374 302.89642319 C78.13924479 303.20046068 78.13924479 303.20046068 112.27899981 302.78178644 C113.0720688 302.76580676 113.86513779 302.74982707 114.68223917 302.73336315 C136.52792633 302.2668285 159.99787988 299.936053 176.6190877 284.16948175 C179.80648644 280.6807533 181.56659464 277.88110456 181.4081502 272.94291925 C180.47163519 267.05483025 178.03960517 262.94163899 173.4784627 259.1343255 C145.9835998 240.36882022 99.39092738 245.95729711 67.56758547 246.00575495 C64.89384398 246.00935529 62.22010793 246.01095127 59.54636431 246.01201105 C32.00878371 246.02553053 4.4798539 246.27453673 -23.05303144 246.77836847 C-161.63139909 249.31298084 -161.63139909 249.31298084 -209.1465373 205.3843255 C-210.9481574 203.64457423 -212.74099039 201.89563812 -214.5215373 200.1343255 C-215.58888105 199.15786066 -215.58888105 199.15786066 -216.6777873 198.16166925 C-234.50341687 181.503194 -246.91173696 155.74802067 -247.8574748 131.3218255 C-248.27991752 102.40771057 -240.63205347 77.96078078 -222.5215373 55.1343255 C-221.98399824 54.45241144 -221.44645918 53.77049738 -220.89263105 53.06791925 C-217.1995517 48.56980898 -213.01780794 44.81578598 -208.5215373 41.1343255 C-207.58438887 40.35959894 -206.64724043 39.58487238 -205.68169355 38.78666925 C-197.5100697 32.18278943 -188.84351887 26.95286766 -179.5215373 22.1343255 C-178.91616133 21.81866632 -178.31078535 21.50300714 -177.68706465 21.17778254 C-146.04040926 4.90707555 -111.77855691 1.46269746 -76.7690959 0.59575129 C-75.90204173 0.5741646 -75.03498756 0.55257792 -74.14165902 0.5303371 C-49.43096326 -0.06469634 -24.71632566 -0.01234768 0 0 Z " fill="#1A1A1A" transform="translate(1414.5215373039246,494.865674495697)"/>
<path d="M0 0 C1.24519476 -0.00085442 2.49038952 -0.00170885 3.77331746 -0.00258917 C7.18498384 -0.00393876 10.59659129 -0.00086244 14.00825047 0.0041889 C17.70401705 0.0085451 21.39978211 0.00704334 25.09555054 0.00628662 C31.48395077 0.00576464 37.87234072 0.00887727 44.26073837 0.01452446 C53.49706012 0.02268379 62.73337694 0.02525921 71.9697019 0.02651245 C86.95841126 0.02869603 101.94711514 0.03533724 116.93582153 0.04481506 C131.48790459 0.05400717 146.03998616 0.06107919 160.59207153 0.06532288 C161.49046607 0.0655856 162.3888606 0.06584832 163.31447922 0.06611901 C167.82187984 0.06742413 172.32928048 0.06868782 176.83668113 0.06993091 C214.17490757 0.0802819 251.5131278 0.09788126 288.85134888 0.12025452 C287.47038526 3.71433418 286.01905337 6.4907931 283.64822388 9.53431702 C283.00482056 10.36785706 282.36141724 11.20139709 281.69851685 12.06019592 C281.00645142 12.94626526 280.31438599 13.83233459 279.60134888 14.74525452 C278.1391725 16.64013252 276.67825886 18.53598551 275.21853638 20.43275452 C274.48344849 21.38666077 273.7483606 22.34056702 272.99099731 23.32337952 C269.85178686 27.42684768 266.7821363 31.57946257 263.72634888 35.74525452 C263.15609985 36.52159241 262.58585083 37.2979303 261.99832153 38.09779358 C260.28118395 40.43753327 258.56592316 42.77863592 256.85134888 45.12025452 C248.89965071 55.9800023 240.8806038 66.77908474 232.69192505 77.46180725 C229.5632246 81.54572533 226.45444203 85.6391831 223.41775513 89.79212952 C222.88617798 90.51569641 222.35460083 91.23926331 221.80691528 91.98475647 C220.83726629 93.30886223 219.87402235 94.63769827 218.91921997 95.97254944 C215.18904294 101.05245252 210.95943557 106.08422562 204.85134888 108.12025452 C202.26404635 108.20959759 199.70448432 108.2418604 197.11746216 108.22705078 C195.92325228 108.22621572 195.92325228 108.22621572 194.70491695 108.22536379 C192.02713453 108.22231908 189.34942585 108.2121292 186.67166138 108.20204163 C184.75446145 108.19848608 182.8372606 108.19539993 180.9200592 108.19274902 C176.78183919 108.18618636 172.64364058 108.1766179 168.50543213 108.16485405 C161.93641633 108.14654093 155.36740575 108.13695384 148.79837036 108.12893677 C130.11402077 108.10481104 111.42970261 108.06926817 92.74539185 108.02430725 C82.43269385 107.99956869 72.12000875 107.9823184 61.80728531 107.97274786 C56.36094251 107.96733023 50.91466778 107.95811341 45.46835327 107.93935966 C-27.25727803 107.48564968 -27.25727803 107.48564968 -88.54708862 143.45228577 C-105.36114705 161.21321096 -114.61714964 185.14439659 -114.36349487 209.49525452 C-112.9023951 234.14799256 -101.47275879 255.75398139 -83.14865112 272.12025452 C-79.9331896 274.65766155 -76.59987042 276.91702077 -73.14865112 279.12025452 C-72.30302612 279.68357483 -71.45740112 280.24689514 -70.58615112 280.82728577 C-57.80189863 288.87192193 -43.25944709 293.72896006 -28.58615112 296.99525452 C-27.73883423 297.1861969 -26.89151733 297.37713928 -26.01852417 297.5738678 C-7.75877301 301.32198458 10.79100374 301.42863552 29.35195637 301.43692875 C32.8472309 301.44068242 36.34246029 301.45586589 39.83770752 301.46954346 C45.86912798 301.49163614 51.90053201 301.50675654 57.93198395 301.51691055 C66.65205419 301.53160132 75.37206701 301.55716593 84.09210321 301.58524184 C98.2455604 301.63052285 112.39902595 301.66721414 126.55252075 301.69837952 C140.28756168 301.72864216 154.02258226 301.76302736 167.75759888 301.8028717 C168.60662514 301.80533325 169.45565141 301.8077948 170.33040574 301.81033094 C174.59043763 301.82270704 178.85046928 301.83516328 183.11050081 301.84765935 C218.35742217 301.95094673 253.60436728 302.0402416 288.85134888 302.12025452 C287.66473311 305.80411048 286.59589088 308.87988468 284.30447388 312.01087952 C283.79642212 312.71116272 283.28837036 313.41144592 282.7649231 314.13294983 C281.94145386 315.24041565 281.94145386 315.24041565 281.10134888 316.37025452 C280.5278772 317.15239319 279.95440552 317.93453186 279.36355591 318.7403717 C273.02809023 327.33077542 266.45631344 335.73649991 259.85134888 344.12025452 C258.87054599 345.36999235 257.89005987 346.61997889 256.90994263 347.87025452 C255.10508993 350.17166366 253.29774691 352.47107647 251.48806763 354.76869202 C249.71507713 357.02021272 247.94722133 359.27562215 246.18338013 361.53431702 C245.28119587 362.68808758 244.37885113 363.84173267 243.47634888 364.99525452 C243.02823853 365.56864563 242.58012817 366.14203674 242.11843872 366.73280334 C239.65886737 369.86621198 237.16473526 372.96493303 234.62088013 376.03041077 C233.50968578 377.37243056 232.39901158 378.71488119 231.28884888 380.05775452 C230.74091675 380.71992981 230.19298462 381.3821051 229.62844849 382.06434631 C225.91642427 386.6214472 222.67737288 391.34332496 219.53884888 396.30775452 C215.6264843 402.43550728 211.93596023 406.90293966 204.67098999 408.64225769 C201.37468621 409.20106028 198.19313895 409.33522872 194.85037231 409.43226624 C193.82195347 409.46300169 193.82195347 409.46300169 192.77275848 409.49435806 C190.50219291 409.55993395 188.2315231 409.61806306 185.96072388 409.67494202 C185.16826012 409.69587795 184.37579636 409.71681389 183.55931854 409.73838425 C165.6066895 410.20693942 147.65821182 410.27831122 129.70042038 410.24922943 C127.05013784 410.2451762 124.39985748 410.24270707 121.74957275 410.24055481 C93.54577555 410.21442365 65.34298431 410.05091063 37.14057922 409.77237701 C34.32750893 409.74562221 31.51442834 409.72185372 28.70132446 409.69892883 C-23.71095646 409.26000122 -23.71095646 409.26000122 -48.21115112 404.93275452 C-49.44736206 404.71917297 -50.683573 404.50559143 -51.95724487 404.28553772 C-112.75472774 393.32505081 -172.40198376 363.54390359 -208.73947144 312.17103577 C-212.52531422 306.66149325 -215.94703458 300.98657055 -219.14865112 295.12025452 C-219.66419556 294.17980286 -219.66419556 294.17980286 -220.19015503 293.22035217 C-243.73114221 249.68443923 -250.36390608 195.18201078 -236.52365112 147.54212952 C-228.41474851 120.96809724 -214.90242114 97.85464715 -196.17208862 77.36634827 C-194.57453184 75.59299856 -193.0648162 73.8034147 -191.58615112 71.93275452 C-189.07643613 69.03692953 -186.45460767 66.61506154 -183.53536987 64.14369202 C-181.82781561 62.69604372 -180.14548492 61.21843307 -178.48068237 59.72181702 C-130.21608316 16.73942953 -63.37548191 -0.16274787 0 0 Z " fill="#1A1A1A" transform="translate(870.1486511230469,495.87974548339844)"/>
<path d="M0 0 C1.06791779 0.12728485 1.06791779 0.12728485 2.15740967 0.25714111 C68.86827288 8.25145646 133.44966119 26.7930518 194 56 C195.71751465 56.82588623 195.71751465 56.82588623 197.46972656 57.66845703 C214.1026275 65.70945234 230.22390553 74.3863095 246 84 C246.84353027 84.51272461 247.68706055 85.02544922 248.55615234 85.55371094 C276.42392885 102.58802093 302.38640332 122.41409495 327.06762695 143.76855469 C330.44879189 146.690561 333.88019291 149.52602937 337.375 152.3125 C352.98419742 165.01499937 368.0649343 179.57415579 381 195 C381.89566313 196.03382944 382.79296045 197.06624416 383.69140625 198.09765625 C390.19681494 205.58517316 396.43973317 213.23320476 402.5078125 221.078125 C404.11074785 223.14263859 405.72632058 225.19682476 407.34375 227.25 C440.31781079 269.1923059 472.00105262 315.64061307 491.5 365.5 C491.90951904 366.53745361 492.31903809 367.57490723 492.7409668 368.64379883 C494.83503796 374.16963714 496.43099843 379.60209371 497.63085938 385.39257812 C497.89040405 386.63527466 498.14994873 387.87797119 498.4173584 389.1583252 C498.70576599 390.56495422 498.70576599 390.56495422 499 392 C487.48827425 392.02344363 475.97655442 392.04107479 464.46480942 392.05181217 C459.11617931 392.0569724 453.76756585 392.06394083 448.41894531 392.07543945 C425.2593821 392.12396498 402.13664562 392.15909164 379 391 C375.38230303 383.84848885 371.83630382 376.67876123 368.43994141 369.41918945 C356.32961607 343.60979631 341.4636278 319.25679991 325 296 C324.45456543 295.22785156 323.90913086 294.45570313 323.34716797 293.66015625 C309.92272056 274.71541216 295.62319883 256.24002106 279.9296875 239.109375 C278.14829604 237.16210498 276.4124023 235.18475529 274.6875 233.1875 C266.04973315 223.32410407 257.00705862 213.90537033 247.75 204.625 C247.27859589 204.15100769 246.80719177 203.67701538 246.32150269 203.18865967 C240.72300424 197.5659411 235.02672035 192.15909385 229 187 C227.39231627 185.54554483 225.78760285 184.08779105 224.1875 182.625 C218.9379551 177.89481647 213.51563781 173.41542472 208 169 C207.4848584 168.58524414 206.9697168 168.17048828 206.43896484 167.74316406 C178.91203491 145.61840453 149.26483997 126.39971809 118 110 C116.97648437 109.45762695 115.95296875 108.91525391 114.8984375 108.35644531 C37.98323548 67.81689388 -48.9702493 48.00521617 -166.8125 47.75 C-167.67450012 47.79290161 -168.53650024 47.83580322 -169.42462158 47.88000488 C-260.08228172 52.52890261 -351.73674691 77.84576771 -441.79296875 134.2578125 C-446.88322521 137.59182513 -452.02866208 140.83589269 -457.1875 144.0625 C-458.07356934 144.62348389 -458.95963867 145.18446777 -459.87255859 145.76245117 C-464.15466927 148.42922123 -468.07112663 150.70122977 -473 152 C-471.84960919 150.84960919 -470.69888266 149.69955293 -469.546875 148.55078125 C-468.48959702 147.49083338 -467.43774005 146.42545767 -466.390625 145.35546875 C-434.92810764 113.38781923 -394.0511648 88.3389602 -354.69677734 67.43652344 C-352.08829219 66.04703162 -349.4908075 64.63870426 -346.89453125 63.2265625 C-281.92452403 28.17382196 -209.03651962 8.53024111 -136 0 C-135.30310059 -0.0835675 -134.60620117 -0.16713501 -133.88818359 -0.25323486 C-90.02282707 -5.48828551 -43.8458483 -5.3299471 0 0 Z " fill="#1A1A1A" transform="translate(1328,95)"/>
<path d="M0 0 C1.62272324 0.04853622 1.62272324 0.04853622 3.27822876 0.09805298 C4.43002625 0.09673874 5.58182373 0.0954245 6.76852417 0.09407043 C10.56840659 0.10033142 14.36429609 0.1702873 18.16348267 0.24087524 C20.80047434 0.25766467 23.43749413 0.27047425 26.07452393 0.27946472 C32.30113679 0.3073953 38.52632088 0.38118726 44.75230563 0.47161013 C51.84279662 0.57234442 58.9333573 0.62172455 66.02438617 0.66686904 C80.60534159 0.76084423 95.18517339 0.91906016 109.76504517 1.11978149 C109.15248823 3.65418387 108.5345282 6.18706729 107.91348267 8.71939087 C107.74260132 9.4288385 107.57171997 10.13828613 107.3956604 10.86923218 C105.78814215 17.39204662 103.46598326 23.47003599 100.76504517 29.61978149 C100.28793091 30.72362183 99.81081665 31.82746216 99.31924438 32.9647522 C91.18021474 51.55253612 81.76525144 69.41124007 71.59561157 86.95913696 C70.30661212 89.18471537 69.02206034 91.41239949 67.74307251 93.64370728 C58.99679659 108.89519157 50.00909284 123.81144957 39.76504517 138.11978149 C38.68636586 139.65064107 37.60824794 141.18189635 36.53067017 142.71353149 C29.78184609 152.24342004 22.66138041 161.39521015 15.20498657 170.3800354 C13.18558197 172.81989251 11.19633556 175.28397713 9.20254517 177.74478149 C5.82507128 181.8618482 2.40485579 185.94043457 -1.04745483 189.99478149 C-1.48452759 190.51121216 -1.92160034 191.02764282 -2.37191772 191.5597229 C-11.64707112 202.39247314 -21.56670417 212.61728211 -31.66366577 222.67886353 C-33.50111244 224.51089145 -35.33307133 226.34828755 -37.16464233 228.18618774 C-43.01842075 234.0436194 -48.89243251 239.7866263 -55.23495483 245.11978149 C-56.35348079 246.09220241 -57.47069553 247.06613384 -58.58651733 248.04165649 C-66.61044474 254.99201101 -74.80845466 261.66414106 -83.23495483 268.11978149 C-84.15051147 268.82288452 -84.15051147 268.82288452 -85.08456421 269.54019165 C-135.50961964 308.14279237 -191.44749414 339.57634959 -251.23495483 361.11978149 C-252.43410522 361.55500122 -253.63325562 361.99022095 -254.8687439 362.43862915 C-301.86827097 379.38006083 -351.49349676 389.7150657 -401.23495483 394.11978149 C-402.6879599 394.24898483 -402.6879599 394.24898483 -404.1703186 394.38079834 C-422.34470365 395.94743635 -440.43739354 396.48791767 -458.67477798 396.43783951 C-460.77462084 396.43217448 -462.87445553 396.42936958 -464.9743042 396.42675781 C-485.81773105 396.38912074 -506.51081182 395.94477405 -527.21676636 393.36978149 C-529.30950986 393.11054611 -531.40340468 392.86266186 -533.49765015 392.61587524 C-556.3760733 389.88189694 -578.83178097 385.46888276 -601.23495483 380.11978149 C-601.90035278 379.96100525 -602.56575073 379.802229 -603.25131226 379.63864136 C-644.14351222 369.81564048 -684.39647799 355.40715279 -722.23495483 337.11978149 C-723.02176636 336.74224731 -723.80857788 336.36471313 -724.61923218 335.97573853 C-729.2004536 333.76958145 -733.7335076 331.48428303 -738.23495483 329.11978149 C-739.24453247 328.5921521 -739.24453247 328.5921521 -740.27450562 328.05386353 C-750.74282739 322.53648187 -760.66594039 316.34912298 -770.52572632 309.81143188 C-777.82965943 304.98112521 -785.25877191 300.42244297 -792.85360718 296.06362915 C-797.28040499 293.48001431 -800.80231356 290.93842259 -804.23495483 287.11978149 C-800.82574891 285.98337952 -800.40771333 286.18513542 -797.26229858 287.53384399 C-796.45905151 287.87592896 -795.65580444 288.21801392 -794.82821655 288.57046509 C-793.95181519 288.9579895 -793.07541382 289.34551392 -792.17245483 289.74478149 C-791.24706909 290.1464856 -790.32168335 290.5481897 -789.36825562 290.96206665 C-781.98312599 294.22132966 -774.79764894 297.82512864 -767.60995483 301.49478149 C-701.81594046 334.85424017 -623.70810247 353.05724609 -550.09823608 353.32290649 C-548.79161011 353.32987549 -547.48498413 353.33684448 -546.13876343 353.34402466 C-541.94165631 353.36330511 -537.74460141 353.36820118 -533.54745483 353.36978149 C-532.83245693 353.37037064 -532.11745903 353.37095978 -531.38079453 353.37156677 C-509.18990576 353.38447354 -487.27823388 352.87630527 -465.23495483 350.11978149 C-464.02758667 349.98056274 -462.82021851 349.84134399 -461.57626343 349.69790649 C-373.39712947 339.48383333 -275.91918622 308.03944065 -200.32479858 245.78775024 C-197.13852324 243.00369519 -193.82790755 240.39956413 -190.48495483 237.80728149 C-184.47528286 233.13281174 -178.58341737 228.32784924 -172.71932983 223.47232056 C-169.08704497 220.46577932 -165.44519656 217.47330573 -161.77401733 214.51431274 C-161.05391479 213.93342896 -160.33381226 213.35254517 -159.59188843 212.75405884 C-158.22955885 211.65693362 -156.86541995 210.56204965 -155.49911499 209.46987915 C-154.88084839 208.97149536 -154.26258179 208.47311157 -153.62557983 207.95962524 C-153.0896521 207.53028687 -152.55372437 207.10094849 -152.0015564 206.65859985 C-149.6277365 204.59085706 -147.44505832 202.36113056 -145.23495483 200.11978149 C-144.44814331 199.32773315 -143.66133179 198.53568481 -142.85067749 197.71963501 C-142.04162964 196.90422241 -141.23258179 196.08880981 -140.39901733 195.24868774 C-138.55273498 193.39314753 -136.70637863 191.53768096 -134.85995483 189.68228149 C-133.93956421 188.75351196 -133.01917358 187.82474243 -132.07089233 186.86782837 C-124.41807441 179.18767895 -124.41807441 179.18767895 -120.28182983 175.69400024 C-117.88488973 173.66889316 -115.86075148 171.76226849 -113.85995483 169.36978149 C-111.29540918 166.34931661 -108.66980837 163.40894636 -105.98495483 160.49478149 C-71.69287985 122.38605061 -42.74557606 75.63751041 -22.44979858 28.69790649 C-21.72687622 27.03187378 -21.72687622 27.03187378 -20.98934937 25.33218384 C-20.05514528 23.16987942 -19.12976102 21.00373442 -18.2149353 18.8331604 C-17.78454956 17.83204224 -17.35416382 16.83092407 -16.91073608 15.79946899 C-16.35253174 14.48051636 -16.35253174 14.48051636 -15.78305054 13.13491821 C-15.27217896 12.1399231 -14.76130737 11.14492798 -14.23495483 10.11978149 C-13.71078901 9.01727948 -13.71078901 9.01727948 -13.17603397 7.89250469 C-9.72964538 1.62510766 -7.10649588 0.08782322 0 0 Z " fill="#1A1A1A" transform="translate(1717.2349548339844,907.8802185058594)"/>
<path d="M0 0 C0.89958435 0.00196381 1.7991687 0.00392761 2.72601318 0.00595093 C7.10380019 0.0141065 11.48158281 0.01919045 15.859375 0.0234375 C16.68020317 0.02449871 17.50103134 0.02555992 18.34673309 0.02665329 C28.94133197 0.03808855 39.53192796 -0.01565735 50.12543488 -0.17007828 C57.16759936 -0.27025011 64.20909752 -0.31799208 71.2519455 -0.3342247 C75.75155965 -0.34707297 80.24790472 -0.38786841 84.74658203 -0.48339844 C89.21889296 -0.57712813 93.68690143 -0.60231997 98.16008759 -0.58046341 C99.83311899 -0.58406474 101.50630088 -0.6117261 103.17847443 -0.66541672 C115.63579469 -1.04518 115.63579469 -1.04518 119.55016518 2.34098625 C122.33781081 5.63445272 124.32540997 9.27197452 126.14429951 13.16792202 C127.01117866 15.02393382 127.94976246 16.82325429 128.92071533 18.6267395 C130.40565874 21.39679941 131.83837025 24.18838974 133.25888062 26.99185181 C145.57682749 51.14237901 160.96527587 73.92588408 178 95 C179.09565089 96.37973303 180.19068466 97.7599563 181.28515625 99.140625 C187.06591498 106.38745096 193.02416341 113.39566006 199.3671875 120.15625 C201.33355889 122.2801645 203.22510202 124.42390928 205.10546875 126.62109375 C209.48569889 131.64826844 214.19328811 136.34344517 218.9152832 141.0456543 C220.43491668 142.5599258 221.94912517 144.0794743 223.46289062 145.59960938 C228.80281135 150.94356628 234.23584891 156.11151567 240 161 C241.12995458 161.98447513 242.25889111 162.97012019 243.38671875 163.95703125 C308.72924668 220.64783308 389.80865535 259.40848432 600.85644531 282.98217773 C678.67675589 277.39344036 758.8798327 254.79421892 824.6875 211.9375 C826.29731164 210.90750029 827.90798858 209.87885173 829.51953125 208.8515625 C830.28217285 208.36461914 831.04481445 207.87767578 831.83056641 207.37597656 C834.82176533 205.4787903 837.83455707 203.63003415 840.875 201.8125 C841.75929688 201.28269531 842.64359375 200.75289062 843.5546875 200.20703125 C846.05749238 198.97162117 848.24950711 198.40912349 851 198 C848.22505324 202.47955691 845.16449969 206.07902267 841.25 209.625 C840.39801025 210.40085449 840.39801025 210.40085449 839.52880859 211.19238281 C832.71592393 217.28724739 825.43134576 222.68925777 818 228 C817.13552246 228.6192334 816.27104492 229.2384668 815.38037109 229.87646484 C801.91771647 239.47775628 788.1967533 248.5231626 774 257 C773.21206055 257.47244141 772.42412109 257.94488281 771.61230469 258.43164062 C729.76138402 283.41987301 684.96027766 302.09139612 638 315 C636.85047852 315.31662598 635.70095703 315.63325195 634.51660156 315.95947266 C544.21789317 340.4596181 447.2222055 340.40127957 231.5 267.1875 C209.05597374 254.2598923 187.54015043 239.77344885 167 224 C165.97003906 223.21367188 164.94007813 222.42734375 163.87890625 221.6171875 C160.57593952 219.09097883 157.28627831 216.54786355 154 214 C153.42991211 213.55897949 152.85982422 213.11795898 152.27246094 212.66357422 C143.6588731 205.99056857 135.24123565 199.12813369 127 192 C126.17242188 191.28585937 125.34484375 190.57171875 124.4921875 189.8359375 C114.01943107 180.60746896 104.00114352 170.67224189 95 160 C94.03045145 158.89164708 93.05888453 157.78505833 92.0859375 156.6796875 C85.22463443 148.86772813 78.62726093 140.90872533 72.28662109 132.66894531 C71.04845326 131.06285132 69.7998202 129.46484178 68.55078125 127.8671875 C57.30064494 113.4104906 46.68687299 98.55087855 37 83 C36.52208008 82.23494141 36.04416016 81.46988281 35.55175781 80.68164062 C2.90022703 28.12063986 2.90022703 28.12063986 0.44091797 4.27514648 C0.35663544 3.47229721 0.27235291 2.66944794 0.18551636 1.8422699 C0.12429596 1.23432083 0.06307556 0.62637177 0 0 Z " fill="#0486CC" transform="translate(692,909)"/>
<path d="M0 0 C1.23919189 0.00182281 2.47838379 0.00364563 3.75512695 0.00552368 C24.00506559 0.05543001 43.97134301 0.74587579 64.0625 3.3125 C64.74582397 3.39971313 65.42914795 3.48692627 66.13317871 3.57678223 C143.05398225 13.49644344 216.17541774 38.12421462 282.0625 79.3125 C283.60019043 80.27325439 283.60019043 80.27325439 285.16894531 81.25341797 C308.96358984 96.17914954 308.96358984 96.17914954 319.0625 104.3125 C318.4025 104.6425 317.7425 104.9725 317.0625 105.3125 C314.83692577 104.54953643 312.76652643 103.71085532 310.625 102.75 C309.93253174 102.44481445 309.24006348 102.13962891 308.52661133 101.82519531 C302.78264064 99.22975788 297.22449244 96.32278368 291.65820312 93.36889648 C237.86774183 64.85918136 178.36237855 50.27090956 118.0625 44.3125 C117.00732178 44.20647461 115.95214355 44.10044922 114.86499023 43.99121094 C102.52688707 42.93064534 90.12391526 43.0686258 77.75 43.0625 C76.52496765 43.06182526 75.2999353 43.06115051 74.03778076 43.06045532 C54.51896334 43.07749968 35.42669659 43.74811996 16.0625 46.3125 C14.70900898 46.48603188 13.35549274 46.65936713 12.00195312 46.83251953 C-8.26072009 49.46126141 -28.11169091 53.35604773 -47.9375 58.3125 C-49.14857422 58.61526855 -50.35964844 58.91803711 -51.60742188 59.22998047 C-123.74056798 77.5740183 -191.97515634 112.42163431 -248.9375 160.3125 C-249.45844238 160.74852539 -249.97938477 161.18455078 -250.51611328 161.63378906 C-266.8341273 175.32170639 -283.30044144 189.79915133 -297.06640625 206.10546875 C-298.59175033 207.90467419 -300.1420763 209.66847298 -301.71484375 211.42578125 C-310.76070645 221.59394896 -318.91359392 232.3276283 -326.9375 243.3125 C-327.4619873 244.02100098 -327.98647461 244.72950195 -328.52685547 245.45947266 C-347.13542784 270.62010338 -360.98846254 298.41442508 -374.9375 326.3125 C-414.2075 326.3125 -453.4775 326.3125 -493.9375 326.3125 C-492.81069821 317.29808569 -492.81069821 317.29808569 -491.4765625 314.11328125 C-491.17613037 313.39060059 -490.87569824 312.66791992 -490.56616211 311.92333984 C-490.23495361 311.1648877 -489.90374512 310.40643555 -489.5625 309.625 C-489.20873291 308.80467285 -488.85496582 307.9843457 -488.49047852 307.13916016 C-471.34498581 268.15704401 -446.51571816 232.40714079 -419.9375 199.3125 C-419.15761719 198.33796875 -418.37773438 197.3634375 -417.57421875 196.359375 C-409.25640177 186.07343897 -400.2921802 176.50617508 -390.9453125 167.15234375 C-389.90828784 166.1120926 -388.87133255 165.07177229 -387.83444214 164.03138733 C-385.67637826 161.86738877 -383.51631244 159.70541198 -381.35498047 157.54467773 C-378.61474886 154.80454778 -375.88147366 152.05759084 -373.14990425 149.30882931 C-371.01525737 147.16295449 -368.8759696 145.02175089 -366.7354393 142.88174629 C-365.72693244 141.87207664 -364.72000519 140.86082615 -363.71484756 139.84782219 C-357.12027029 133.20656836 -350.28479822 127.10851594 -342.9375 121.3125 C-341.5012467 120.1628296 -340.06503813 119.01310332 -338.62890625 117.86328125 C-307.59486753 93.41390761 -274.21873883 73.02178051 -238.9375 55.3125 C-237.45830078 54.56589111 -237.45830078 54.56589111 -235.94921875 53.80419922 C-163.40584989 17.3960618 -80.92315044 -0.24928221 0 0 Z " fill="#0486CC" transform="translate(1185.9375,160.6875)"/>
<path d="M0 0 C34.32 0 68.64 0 104 0 C104.6144946 37.77158569 104.6144946 37.77158569 104.76849365 49.68029785 C104.779093 50.49980936 104.78969235 51.31932088 104.8006129 52.16366607 C105.16710048 81.04239782 105.14678315 109.92276144 105.13529945 138.80334745 C105.13296989 144.83254507 105.13274922 150.86173987 105.13381577 156.89093781 C105.133969 157.76714746 105.13412223 158.64335711 105.13428011 159.54611857 C105.13459997 161.32850502 105.13492419 163.11089147 105.1352527 164.89327791 C105.1380579 181.33311353 105.13489573 197.77294344 105.12945233 214.21277812 C105.12494712 228.2556244 105.12580007 242.29846245 105.13037109 256.34130859 C105.13573457 272.82545775 105.13782641 289.30960205 105.13475883 305.79375196 C105.13444039 307.55166197 105.13412601 309.30957198 105.13381577 311.06748199 C105.13358435 312.36362815 105.13358435 312.36362815 105.13334826 313.68595909 C105.13249151 319.72015263 105.13392679 325.75434302 105.13629532 331.78853607 C105.13911153 339.12016201 105.13831508 346.45177726 105.13301457 353.783402 C105.13040845 357.5085646 105.12931994 361.23370942 105.13266373 364.95887184 C105.13624766 369.01261508 105.13193645 373.06631435 105.12698364 377.12005615 C105.13032973 378.84327847 105.13032973 378.84327847 105.13374341 380.60131335 C105.11138016 390.12753593 104.53100187 399.44196638 104 409 C69.68 409 35.36 409 0 409 C0 274.03 0 139.06 0 0 Z " fill="#1A1A1A" transform="translate(1742,496)"/>
<path d="M0 0 C14.85 0 29.7 0 45 0 C45.33 20.13 45.66 40.26 46 61 C48.64 58.69 51.28 56.38 54 54 C57.046875 52.2578125 57.046875 52.2578125 59.75 51.125 C60.65234375 50.73570313 61.5546875 50.34640625 62.484375 49.9453125 C72.77759821 46.07736216 86.24648152 46.6522606 96.390625 50.6875 C106.29820443 55.67095313 112.34645697 63.03142499 116.28515625 73.375 C122.30251354 93.38972245 121.58716827 116.19339943 112.5 135.125 C105.98128149 147.19670095 97.05512852 153.83070502 84.25 158.3125 C74.17214738 160.43415318 62.55768754 160.13995426 53.6796875 154.53515625 C50.92105853 152.51315043 48.41837188 150.41837188 46 148 C45.505 151.96 45.505 151.96 45 156 C30.15 156 15.3 156 0 156 C0 104.52 0 53.04 0 0 Z M49 85 C44.15666614 91.28324392 43.79963288 96.17524118 43.75 103.8125 C43.729375 104.59431641 43.70875 105.37613281 43.6875 106.18164062 C43.64212768 112.9704747 44.93733852 117.6279393 49.5 122.875 C53.52205355 126.29374552 56.85164273 126.35505912 62 126 C66.52905982 124.05897436 69.16894648 120.97877792 72 117 C73.76658509 111.97013966 74.33785395 107.29390409 74.3125 102 C74.32861328 101.32710937 74.34472656 100.65421875 74.36132812 99.9609375 C74.36758293 93.48096452 72.76647207 88.98189549 68.4375 84.125 C64.65952859 80.8313839 62.19453353 80.65218571 57.31640625 80.72265625 C53.68836842 81.15704189 51.70542072 82.60916309 49 85 Z " fill="#1A1A1A" transform="translate(474,1398)"/>
<path d="M0 0 C14.85 0 29.7 0 45 0 C45 51.48 45 102.96 45 156 C30.15 156 15.3 156 0 156 C-0.495 151.545 -0.495 151.545 -1 147 C-1.53367187 147.45890625 -2.06734375 147.9178125 -2.6171875 148.390625 C-13.45308666 157.31430666 -24.10843484 160.0115909 -38 159 C-46.23554614 157.40396393 -52.81276471 154.66821776 -59 149 C-59.61488281 148.47535156 -60.22976563 147.95070313 -60.86328125 147.41015625 C-71.18385399 138.01777206 -74.49630376 123.60897441 -75.203125 110.125 C-75.53936044 92.72271432 -72.35856832 73.56639899 -59.7578125 60.44921875 C-47.4082135 50.26766047 -34.79810603 46.57018375 -19 48 C-11.00686992 49.68327047 -7.42900991 52.48942008 -1 58 C-0.67 38.86 -0.34 19.72 0 0 Z M-25.4765625 86.82421875 C-29.0437289 92.53367783 -29.48761552 98.05991545 -29.5625 104.625 C-29.57716309 105.42429932 -29.59182617 106.22359863 -29.60693359 107.04711914 C-29.5085905 112.7907111 -28.16331622 117.18120521 -25 122 C-21.78119778 125.02372329 -19.05059185 125.92217838 -14.625 126.25 C-9.24142939 125.87871927 -7.06999319 124.06999319 -3.3125 120.3125 C2.23428882 113.1435371 1.62422916 103.61838975 1 95 C0.02446691 89.395119 -2.46866278 85.55543218 -6.97265625 82.0703125 C-13.91691794 78.40417049 -20.75634682 80.99262954 -25.4765625 86.82421875 Z " fill="#1A1A1A" transform="translate(2029,1398)"/>
<path d="M0 0 C14.52 0 29.04 0 44 0 C44 51.48 44 102.96 44 156 C29.48 156 14.96 156 0 156 C-0.33 152.7 -0.66 149.4 -1 146 C-2.6396875 147.5778125 -2.6396875 147.5778125 -4.3125 149.1875 C-13.14028919 156.9314503 -22.95880927 159.39436733 -34.453125 159.27734375 C-45.93360929 158.37964068 -55.72897396 153.67344743 -63.6875 145.4375 C-76.00459076 130.4564803 -76.21719823 111.41316627 -75 93 C-73.23303084 78.87840511 -66.40316814 66.57965402 -56 57 C-44.83812441 48.56183568 -32.66566709 46.5535972 -19 48 C-10.97586863 49.68478203 -7.46002436 52.46283627 -1 58 C-0.67 38.86 -0.34 19.72 0 0 Z M-26 87 C-30.8580582 94.93482839 -31.17824045 104.65420106 -29.50390625 113.671875 C-28.04474788 118.58519923 -26.08534778 121.73172178 -22 125 C-17.29477445 126.56840852 -13.47351184 126.54895539 -8.8125 124.8125 C-3.67834911 121.50382498 -1.55428065 117.81194689 0 112 C0.32606201 108.87059128 0.37005576 105.76953881 0.375 102.625 C0.39949219 101.81289062 0.42398437 101.00078125 0.44921875 100.1640625 C0.47736882 94.30884734 -0.68800401 89.8777322 -4 85 C-7.31008903 81.92084742 -10.00047712 80.72211403 -14.4375 80.375 C-19.71093429 80.62399858 -22.68801839 83.04902194 -26 87 Z " fill="#1A1A1A" transform="translate(1631,1398)"/>
<path d="M0 0 C1.2576416 0.00725098 2.5152832 0.01450195 3.81103516 0.02197266 C16.34414813 0.20687426 27.70718248 1.93419499 39.75 5.375 C39.75 18.245 39.75 31.115 39.75 44.375 C33.81 42.065 27.87 39.755 21.75 37.375 C15.4133394 35.9668532 10.88282092 35.08086934 4.625 35.0625 C3.96113281 35.04638672 3.29726563 35.03027344 2.61328125 35.01367188 C-2.45222605 35.00871541 -5.8275493 36.10250644 -10.25 38.375 C-12.28122609 40.82939819 -12.25 42.1205281 -12.25 45.3125 C-10.61310188 50.32550048 -7.02362366 52.46426707 -2.49853516 54.7878418 C0.79664968 56.31637443 4.10965735 57.79395127 7.4375 59.25 C24.93833701 66.91856688 39.28949282 74.96353407 46.75 93.375 C50.24080052 103.54757819 48.23636558 116.94248602 43.75 126.375 C37.51915754 138.11774156 27.81825418 144.41403502 15.75 149.375 C-7.5027769 156.46205325 -35.69192045 155.7355489 -58.25 146.375 C-59.25 145.375 -59.25 145.375 -59.36352539 141.49780273 C-59.36336621 139.76805833 -59.35766849 138.03830919 -59.34765625 136.30859375 C-59.3462413 135.39997086 -59.34482635 134.49134796 -59.34336853 133.55519104 C-59.33775193 130.64092779 -59.32519665 127.72674019 -59.3125 124.8125 C-59.30748714 122.84179798 -59.30292386 120.87109476 -59.29882812 118.90039062 C-59.28777711 114.05856441 -59.27050138 109.21679505 -59.25 104.375 C-56.28098921 105.53227571 -53.40433091 106.74315251 -50.578125 108.21484375 C-38.2066945 114.57871726 -24.37312663 121.64463485 -10.01953125 117.7734375 C-6.45951185 116.35470445 -6.45951185 116.35470445 -4.25 113.375 C-3.64367779 107.70761018 -3.64367779 107.70761018 -6 102.75 C-11.50482939 98.14986402 -18.6400533 95.44328413 -25.203125 92.71875 C-40.51436617 86.34393849 -52.53834754 78.57419445 -59.3046875 62.890625 C-63.59613996 51.47039614 -62.18901923 37.33870522 -57.25 26.375 C-55.521343 23.40091288 -53.55917489 20.91565697 -51.25 18.375 C-50.79496094 17.79492188 -50.33992187 17.21484375 -49.87109375 16.6171875 C-46.15383779 12.2884769 -41.68769545 9.71884392 -36.6875 7.125 C-36.06955566 6.79564453 -35.45161133 6.46628906 -34.81494141 6.12695312 C-23.90296788 0.76553131 -11.97415334 -0.13729975 0 0 Z " fill="#1A1A1A" transform="translate(936.25,1403.625)"/>
<path d="M0 0 C0 13.86 0 27.72 0 42 C-9 39 -9 39 -11.765625 38.05078125 C-23.47057785 34.57242262 -39.3875627 33.50347563 -50.71484375 38.69140625 C-60.59420677 44.34881926 -65.48539134 50.76931332 -68.84375 61.76171875 C-71.60178322 74.19101317 -69.43745305 86.06573371 -62.83984375 96.90625 C-57.66208499 103.78652605 -49.30021874 107.60229477 -41 109 C-25.984386 110.23622525 -14.24425699 106.74808566 0 102 C0 115.53 0 129.06 0 143 C-29.30214301 150.8139048 -59.77700249 153.55639861 -87.125 138.25 C-102.38949875 128.64537157 -112.20066423 114.38111844 -116.640625 96.96484375 C-118.19202938 89.9065575 -118.53873873 83.08524661 -118.5 75.875 C-118.49355469 74.60962402 -118.48710937 73.34424805 -118.48046875 72.04052734 C-118.07926193 51.29655125 -111.68852429 32.4943893 -96.8515625 17.65234375 C-71.89299738 -5.56254079 -31.9894303 -10.66314343 0 0 Z " fill="#1A1A1A" transform="translate(335,1408)"/>
<path d="M0 0 C16.17 0 32.34 0 49 0 C50.7981694 6.8822946 52.59519101 13.76486909 54.3894043 20.64819336 C54.99877565 22.98462723 55.60878866 25.32089385 56.21948242 27.65698242 C62.73246796 52.57461064 62.73246796 52.57461064 65 63 C66.73186636 59.85414684 67.65356741 56.83045804 68.49633789 53.34521484 C68.77324966 52.21078949 69.05016144 51.07636414 69.33546448 49.90756226 C69.62823776 48.68767609 69.92101105 47.46778992 70.22265625 46.2109375 C70.68939852 44.29417048 71.15614315 42.37740403 71.62303066 40.46067238 C72.27457637 37.78077981 72.92175374 35.09983997 73.56890869 32.41888428 C74.7041029 27.7182229 75.84396776 23.01869731 76.98716736 18.31997681 C77.59523553 15.81880401 78.20073799 13.31700584 78.80348206 10.81454468 C79.07724167 9.68642365 79.35100128 8.55830261 79.63305664 7.39599609 C79.99373985 5.90185684 79.99373985 5.90185684 80.36170959 4.37753296 C81 2 81 2 82 0 C96.19 0 110.38 0 125 0 C123.8749618 7.87526738 123.8749618 7.87526738 122.36791992 12.0625 C122.03138397 13.00762955 121.69484802 13.95275909 121.34811401 14.92652893 C120.97929108 15.94077438 120.61046814 16.95501984 120.23046875 18 C119.84214874 19.08445908 119.45382874 20.16891815 119.05374146 21.28623962 C117.77191953 24.86002638 116.4802102 28.43013858 115.1875 32 C114.2883154 34.49410019 113.3894583 36.98831628 112.4909668 39.48266602 C111.09200273 43.36462588 109.69163558 47.24606877 108.28736877 51.12611389 C105.46326863 58.93044899 102.66188882 66.74240615 99.88267517 74.56283569 C98.1250936 79.5073024 96.35432467 84.44703457 94.58267212 89.38647461 C93.7463862 91.72448258 92.91422415 94.06397039 92.08651733 96.4050293 C76.34664823 140.87325917 76.34664823 140.87325917 56.125 151.62890625 C40.89345718 158.31174566 24.75487461 156.74931048 9 153 C8.34 152.67 7.68 152.34 7 152 C7 140.78 7 129.56 7 118 C9.97 118.99 12.94 119.98 16 121 C22.73803666 122.68450916 28.98240429 123.02819518 35.19921875 119.52734375 C38.75682348 116.50993931 40.82949771 112.47093499 42 108 C41.56494243 102.09703873 39.7088256 97.33723255 37.37890625 91.984375 C37.00713257 91.11144302 36.63535889 90.23851105 36.25231934 89.33912659 C35.02983905 86.47283139 33.79606421 83.61154018 32.5625 80.75 C31.7085857 78.75195979 30.85565322 76.75349971 30.00366211 74.75463867 C28.68144076 71.65292641 27.35859899 68.5514948 26.0327301 65.45133972 C21.7165141 55.35787614 17.4658021 45.23747583 13.23190308 35.10925293 C12.08576748 32.36814668 10.93772068 29.62784763 9.78930664 26.88769531 C8.12695104 22.91905717 6.47057706 18.94798977 4.82061768 14.97418213 C4.08777111 13.21115333 3.35057668 11.44993328 2.61279297 9.68896484 C2.24428223 8.79516113 1.87577148 7.90135742 1.49609375 6.98046875 C1.19759521 6.26141357 0.89909668 5.5423584 0.59155273 4.80151367 C0 3 0 3 0 0 Z " fill="#1A1A1A" transform="translate(341,1448)"/>
<path d="M0 0 C14.85 0 29.7 0 45 0 C45.05607422 7.27611328 45.05607422 7.27611328 45.11328125 14.69921875 C45.14356353 17.77542591 45.17471294 20.85157539 45.20898438 23.92773438 C45.26327817 28.80848261 45.3143892 33.68911674 45.34643555 38.57006836 C45.37247839 42.50599859 45.41288729 46.44154495 45.46318626 50.37723732 C45.47984843 51.8774519 45.49136678 53.37773286 45.49761391 54.87802696 C45.50726249 56.98248746 45.53532826 59.08596738 45.56762695 61.19018555 C45.58428154 62.98555 45.58428154 62.98555 45.60127258 64.81718445 C46.0411049 68.3281172 46.8800394 70.19200337 49 73 C52.72579089 75.48386059 54.58711402 75.3804212 59 75 C63.70440776 73.07546955 65.07155495 70.59584543 67 66 C67.46532692 62.73373708 67.46532692 62.73373708 67.43237305 59.26025391 C67.4425647 58.61564209 67.45275635 57.97103027 67.46325684 57.30688477 C67.49321847 55.19668701 67.50262627 53.08694439 67.51171875 50.9765625 C67.52857805 49.50538647 67.54672997 48.03422473 67.56611633 46.56307983 C67.61348712 42.70640531 67.64337963 38.84978876 67.66955566 34.99291992 C67.70468622 30.35711985 67.76166195 25.72154233 67.81494904 21.08592224 C67.89331149 14.05731026 67.94403058 7.02898658 68 0 C82.85 0 97.7 0 113 0 C113 34.98 113 69.96 113 106 C98.15 106 83.3 106 68 106 C67.67 101.71 67.34 97.42 67 93 C65.576875 94.794375 65.576875 94.794375 64.125 96.625 C57.75630374 103.8961431 49.51235827 108.56159155 39.80859375 109.21484375 C28.20738198 109.52771354 19.02982759 107.56068897 10 100 C2.84147283 92.87799593 0.20950917 81.21764522 -0.12025452 71.43118286 C-0.11803391 70.11213959 -0.11581329 68.79309631 -0.11352539 67.43408203 C-0.11367142 66.70168808 -0.11381744 65.96929413 -0.1139679 65.21470642 C-0.1132755 62.81237751 -0.10551482 60.41012774 -0.09765625 58.0078125 C-0.09578968 56.33486982 -0.0943669 54.66192658 -0.09336853 52.98898315 C-0.08956219 48.59959385 -0.07974808 44.21023797 -0.06866455 39.82086182 C-0.05660483 34.54694306 -0.05203922 29.27301309 -0.04621124 23.99908447 C-0.03653524 15.99936645 -0.01736553 7.99972167 0 0 Z " fill="#1A1A1A" transform="translate(1218,1448)"/>
<path d="M0 0 C8.15188845 6.25538908 11.69108942 15.35439759 13.41659546 25.20333862 C14.25593911 32.06119491 14.07386296 38.96202039 14.02734375 45.859375 C14.02360556 47.5027499 14.0207624 49.14612706 14.01876831 50.789505 C14.01119526 55.07858624 13.9916025 59.36752828 13.96936035 63.65655518 C13.945132 68.82211176 13.93609075 73.98771533 13.92445374 79.15331268 C13.90517334 86.96819017 13.86680704 94.78276328 13.83203125 102.59765625 C-1.01796875 102.59765625 -15.86796875 102.59765625 -31.16796875 102.59765625 C-31.22404297 95.68119141 -31.22404297 95.68119141 -31.28125 88.625 C-31.31154502 85.6946249 -31.34270273 82.76430941 -31.37695312 79.83398438 C-31.43117181 75.18826385 -31.4822856 70.54266125 -31.5144043 65.89672852 C-31.54051534 62.14881272 -31.58097174 58.40129544 -31.63115501 54.6536274 C-31.64777127 53.22763611 -31.65931809 51.80157597 -31.66558266 50.37550163 C-31.52919064 40.02731149 -31.52919064 40.02731149 -35.16796875 30.59765625 C-39.4827047 27.72116561 -43.58689425 28.39388721 -48.54296875 28.78515625 C-50.42838542 29.52473958 -50.42838542 29.52473958 -51.35546875 31.97265625 C-51.62359375 32.83890625 -51.89171875 33.70515625 -52.16796875 34.59765625 C-52.49796875 35.58765625 -52.82796875 36.57765625 -53.16796875 37.59765625 C-53.28545652 39.6979441 -53.344812 41.80165073 -53.37329102 43.9050293 C-53.39323624 45.20615158 -53.41318146 46.50727386 -53.43373108 47.8478241 C-53.45071421 49.26833985 -53.46759306 50.68885685 -53.484375 52.109375 C-53.50495012 53.56240931 -53.52594674 55.01543771 -53.54734802 56.46846008 C-53.60251109 60.29065155 -53.65194573 64.11289651 -53.70019531 67.93518066 C-53.75929046 72.52244156 -53.82548668 77.1096048 -53.8904953 81.69678497 C-53.9884323 88.66368236 -54.0773378 95.63064273 -54.16796875 102.59765625 C-69.01796875 102.59765625 -83.86796875 102.59765625 -99.16796875 102.59765625 C-99.16796875 67.61765625 -99.16796875 32.63765625 -99.16796875 -3.40234375 C-84.31796875 -3.40234375 -69.46796875 -3.40234375 -54.16796875 -3.40234375 C-53.67296875 3.03265625 -53.67296875 3.03265625 -53.16796875 9.59765625 C-52.09546875 8.40140625 -51.02296875 7.20515625 -49.91796875 5.97265625 C-36.92116936 -7.09376885 -15.53802247 -10.05072084 0 0 Z " fill="#1A1A1A" transform="translate(1926.16796875,1451.40234375)"/>
<path d="M0 0 C9.00020948 7.76293013 11.64954734 19.67972088 13 31 C13.25179345 36.27874842 13.2349634 41.54570398 13.1953125 46.828125 C13.19157205 48.31312874 13.18872997 49.79813498 13.18673706 51.28314209 C13.17918172 55.1497099 13.15960519 59.01612212 13.1373291 62.88262939 C13.11305158 67.54427374 13.10405103 72.20597076 13.09242249 76.86766052 C13.07317417 83.91188116 13.03479591 90.9557619 13 98 C-0.53 98 -14.06 98 -28 98 C-28.33 94.04 -28.66 90.08 -29 86 C-29.639375 86.86625 -30.27875 87.7325 -30.9375 88.625 C-36.63193199 95.39113688 -44.31977233 99.54724223 -53 101 C-64.30507126 101.93666873 -73.53333244 101.28796237 -82.375 93.8125 C-89.1645959 87.26805434 -92.05090181 80.55825324 -92.29272461 71.16186523 C-92.39172591 60.02605221 -90.9540619 51.02497965 -82.89453125 42.7109375 C-71.91339108 32.79394906 -56.76635993 31.38118323 -42.625 29.75 C-41.19518709 29.57655155 -39.76549829 29.40207681 -38.3359375 29.2265625 C-34.89196659 28.80593339 -31.44655363 28.39898685 -28 28 C-31.60158936 22.40845685 -33.7967963 19.77114163 -40.375 18.1875 C-54.93114066 16.90393788 -68.9112283 22.39052641 -82 28 C-82 18.1 -82 8.2 -82 -2 C-74.12034799 -5.37699372 -74.12034799 -5.37699372 -70.625 -6.1328125 C-69.86703125 -6.29910156 -69.1090625 -6.46539063 -68.328125 -6.63671875 C-67.55984375 -6.79785156 -66.7915625 -6.95898438 -66 -7.125 C-65.23171875 -7.29386719 -64.4634375 -7.46273438 -63.671875 -7.63671875 C-43.31774103 -12.03293476 -17.31107263 -13.67012045 0 0 Z M-37.1875 51.25 C-37.94353516 51.35957031 -38.69957031 51.46914062 -39.47851562 51.58203125 C-44.60170334 52.4262686 -47.93312716 53.73638198 -52 57 C-53.41000664 59.82001327 -53.24548451 61.87007255 -53 65 C-52.15254366 67.85701707 -52.15254366 67.85701707 -50 70 C-45.52317022 71.8210833 -42.46433124 72.48095612 -37.8125 71.0625 C-33.51597773 69.1679705 -31.07882006 66.14871814 -29 62 C-28.10197023 59.18804429 -27.8884522 56.69286821 -27.9375 53.75 C-27.958125 52.5125 -27.97875 51.275 -28 50 C-31.04950832 50 -34.17507993 50.76420657 -37.1875 51.25 Z " fill="#1A1A1A" transform="translate(2245,1456)"/>
<path d="M0 0 C0.92280762 0.00563965 1.84561523 0.0112793 2.79638672 0.01708984 C16.48800003 0.26016472 28.16046675 3.95709579 38.4375 13.3125 C53.04751364 28.86678741 51.6875 47.52391088 51.6875 68.3125 C30.5675 68.6425 9.4475 68.9725 -12.3125 69.3125 C-8.84436901 75.09271832 -5.75420285 78.27000885 0.6875 80.3125 C12.06087465 83.08649382 25.62203096 81.53868761 36.44140625 77.2109375 C38.6875 76.3125 38.6875 76.3125 41.6875 76.3125 C41.6875 85.8825 41.6875 95.4525 41.6875 105.3125 C21.15752533 111.62941528 -1.31619318 114.79008402 -22.3125 108.3125 C-23.22 108.0340625 -24.1275 107.755625 -25.0625 107.46875 C-36.82615783 103.30843199 -46.82518059 94.03887631 -52.1875 82.8125 C-59.11468472 67.11734021 -57.94670348 48.20339587 -52.3125 32.3125 C-46.07040845 17.79558969 -35.9887521 9.54811574 -21.7734375 3.13671875 C-14.540091 0.71412175 -7.60505212 -0.04879502 0 0 Z M-7.3125 30.3125 C-11.98974521 34.85610963 -11.7169477 37.13251465 -13.3125 44.3125 C-5.0625 44.3125 3.1875 44.3125 11.6875 44.3125 C11.6875 37.6321824 11.53552512 34.2622403 6.9375 29.5 C1.63717178 26.70260455 -2.62471791 26.5115956 -7.3125 30.3125 Z " fill="#1A1A1A" transform="translate(1494.3125,1445.6875)"/>
<path d="M0 0 C11.73766577 9.71933593 15.94815108 22.47476601 17.58984375 37.25 C17.58984375 44.18 17.58984375 51.11 17.58984375 58.25 C-3.86015625 58.25 -25.31015625 58.25 -47.41015625 58.25 C-43.61599751 65.4249562 -43.61599751 65.4249562 -37.91015625 68.6875 C-37.17796875 68.97496094 -36.44578125 69.26242187 -35.69140625 69.55859375 C-21.47930639 73.86602812 -7.35811412 69.73698947 6.58984375 66.25 C6.58984375 75.82 6.58984375 85.39 6.58984375 95.25 C-16.08337625 102.22637539 -42.65100141 105.82713048 -64.84765625 95 C-77.87207318 87.95977463 -85.39723258 78.34568737 -89.69921875 64.09765625 C-90.68857805 60.13478301 -91.23810843 56.32678533 -91.41015625 52.25 C-91.45011719 51.55777344 -91.49007812 50.86554688 -91.53125 50.15234375 C-92.0109411 34.6047088 -87.57219368 19.11832543 -77.59765625 7.05859375 C-58.47532528 -13.25888291 -22.54815351 -16.37207905 0 0 Z M-42.41015625 20.25 C-46.64005424 25.16582739 -46.53819114 27.27427914 -47.41015625 34.25 C-39.16015625 34.25 -30.91015625 34.25 -22.41015625 34.25 C-22.83488839 26.23471797 -22.83488839 26.23471797 -26.41015625 20.25 C-32.43040727 16.53537703 -36.40425343 16.49631074 -42.41015625 20.25 Z " fill="#1A1A1A" transform="translate(695.41015625,1455.75)"/>
<path d="M0 0 C12.59549552 9.64486699 17.76861099 20.3802769 20 36 C20 43.92 20 51.84 20 60 C-1.45 60 -22.9 60 -45 60 C-41.20584126 67.1749562 -41.20584126 67.1749562 -35.5 70.4375 C-34.7678125 70.72496094 -34.035625 71.01242187 -33.28125 71.30859375 C-19.06915014 75.61602812 -4.94795787 71.48698947 9 68 C9 77.57 9 87.14 9 97 C-15.80752981 104.6330861 -42.16103131 107.15013932 -65.87890625 94.9140625 C-76.60714994 88.33478915 -83.36793927 78.37473869 -87.1171875 66.4453125 C-91.01471877 49.86915859 -88.77293662 31.38580047 -80.6875 16.5625 C-72.21484565 3.05640828 -59.9446101 -3.63485006 -44.74609375 -7.5859375 C-29.52551366 -9.88093251 -13.14285433 -8.44748054 0 0 Z M-41 23 C-43.70794864 27.30271723 -45 30.90553437 -45 36 C-36.75 36 -28.5 36 -20 36 C-20.64961058 27.3261202 -20.64961058 27.3261202 -25 21 C-30.79825129 17.81096179 -36.06332652 18.68184246 -41 23 Z " fill="#1A1A1A" transform="translate(1081,1454)"/>
<path d="M0 0 C0 11.55 0 23.1 0 35 C-6 33 -6 33 -8.0625 32.1484375 C-16.72736507 28.68947927 -27.36354757 28.45488089 -36.09765625 31.88671875 C-41.18050254 34.86127972 -44.21437136 39.48151872 -46 45 C-46.84032179 52.63129443 -46.80055554 59.72806675 -42 66 C-37.63065181 70.9107948 -32.80116822 72.63665304 -26.34375 73.25390625 C-18.26052798 73.58361662 -11.5775615 71.62057335 -4 69 C-2.66912643 68.65697749 -1.33618605 68.32170753 0 68 C0.12359943 72.64467639 0.21433399 77.28839626 0.2746582 81.93432617 C0.2998033 83.51457389 0.33392474 85.09470529 0.37719727 86.67456055 C0.43785708 88.94609232 0.46620678 91.21608744 0.48828125 93.48828125 C0.51408768 94.19463211 0.5398941 94.90098297 0.56648254 95.6287384 C0.56762695 97.63012695 0.56762695 97.63012695 0 101 C-2.89808227 103.32891627 -5.63453084 104.38851554 -9.25 105.125 C-9.93578125 105.27195312 -10.6215625 105.41890625 -11.328125 105.5703125 C-30.65468914 108.67838568 -53.04499816 109.32249276 -70 98 C-82.09758265 88.57471919 -90.1580154 77.4203045 -92.625 62.125 C-94.21441415 47.01111634 -91.97115244 30.6606598 -82.75 18.1875 C-64.45737679 -3.29158016 -26.21123848 -13.10561924 0 0 Z " fill="#1A1A1A" transform="translate(1203,1450)"/>
<path d="M0 0 C14.85 0 29.7 0 45 0 C45 48.84 45 97.68 45 148 C30.15 148 15.3 148 0 148 C0 99.16 0 50.32 0 0 Z " fill="#1A1A1A" transform="translate(1758,1406)"/>
<path d="M0 0 C1 1 1 1 1.11352539 4.69360352 C1.11336624 6.33871292 1.10766988 7.98382731 1.09765625 9.62890625 C1.0962413 10.49313705 1.09482635 11.35736786 1.09336853 12.24778748 C1.08775239 15.01939292 1.07519719 17.7909188 1.0625 20.5625 C1.05748708 22.4368478 1.05292381 24.31119685 1.04882812 26.18554688 C1.03777772 30.79039544 1.0205023 35.39518421 1 40 C0.38557037 39.85911453 -0.22885925 39.71822906 -0.86190796 39.57307434 C-1.66979767 39.39016342 -2.47768738 39.2072525 -3.31005859 39.01879883 C-4.11011322 38.83666336 -4.91016785 38.65452789 -5.73446655 38.46687317 C-12.95194877 36.9795198 -19.58612952 37.33493116 -26 41 C-29.76198796 43.92599063 -31.71754579 47.46072508 -33 52 C-33.46207534 56.23666939 -33.48839689 60.4558015 -33.51171875 64.71484375 C-33.52966995 65.92572159 -33.54762115 67.13659943 -33.56611633 68.38417053 C-33.62011128 72.2352454 -33.65408149 76.08619705 -33.6875 79.9375 C-33.72068249 82.55535564 -33.75517301 85.17319505 -33.79101562 87.79101562 C-33.87828329 94.19402712 -33.93844813 100.59648346 -34 107 C-48.85 107 -63.7 107 -79 107 C-79 72.02 -79 37.04 -79 1 C-64.15 1 -49.3 1 -34 1 C-33.505 7.93 -33.505 7.93 -33 15 C-32.195625 13.80375 -31.39125 12.6075 -30.5625 11.375 C-25.62705789 4.8407527 -19.40195323 0.60157627 -11.28125 -0.828125 C-7.46608903 -1.11556863 -3.736407 -0.82567923 0 0 Z " fill="#1A1A1A" transform="translate(1430,1447)"/>
<path d="M0 0 C1 1 1 1 1.11352539 4.69360352 C1.11336624 6.33871292 1.10766988 7.98382731 1.09765625 9.62890625 C1.0962413 10.49313705 1.09482635 11.35736786 1.09336853 12.24778748 C1.08775239 15.01939292 1.07519719 17.7909188 1.0625 20.5625 C1.05748708 22.4368478 1.05292381 24.31119685 1.04882812 26.18554688 C1.03777772 30.79039544 1.0205023 35.39518421 1 40 C0.38557037 39.85911453 -0.22885925 39.71822906 -0.86190796 39.57307434 C-1.66979767 39.39016342 -2.47768738 39.2072525 -3.31005859 39.01879883 C-4.11011322 38.83666336 -4.91016785 38.65452789 -5.73446655 38.46687317 C-12.95194877 36.9795198 -19.58612952 37.33493116 -26 41 C-29.76198796 43.92599063 -31.71754579 47.46072508 -33 52 C-33.46207534 56.23666939 -33.48839689 60.4558015 -33.51171875 64.71484375 C-33.52966995 65.92572159 -33.54762115 67.13659943 -33.56611633 68.38417053 C-33.62011128 72.2352454 -33.65408149 76.08619705 -33.6875 79.9375 C-33.72068249 82.55535564 -33.75517301 85.17319505 -33.79101562 87.79101562 C-33.87828329 94.19402712 -33.93844813 100.59648346 -34 107 C-48.85 107 -63.7 107 -79 107 C-79 72.02 -79 37.04 -79 1 C-64.15 1 -49.3 1 -34 1 C-33.505 7.93 -33.505 7.93 -33 15 C-32.195625 13.80375 -31.39125 12.6075 -30.5625 11.375 C-25.62705789 4.8407527 -19.40195323 0.60157627 -11.28125 -0.828125 C-7.46608903 -1.11556863 -3.736407 -0.82567923 0 0 Z " fill="#1A1A1A" transform="translate(806,1447)"/>
<path d="M0 0 C14.85 0 29.7 0 45 0 C45 34.98 45 69.96 45 106 C30.15 106 15.3 106 0 106 C0 71.02 0 36.04 0 0 Z " fill="#1A1A1A" transform="translate(2094,1448)"/>
<path d="M0 0 C0.70745361 0.00418945 1.41490723 0.00837891 2.14379883 0.01269531 C9.68448019 0.17611296 15.71759193 1.75488615 21.125 7.3125 C25.38802817 13.21085373 26.12341618 19.18838458 25.125 26.3125 C23.52645764 32.11720694 20.25204216 35.76588309 15.33203125 39.125 C7.87773887 43.13580511 -0.80513589 43.24590532 -8.875 41.25 C-14.99950457 39.22108092 -19.8431217 35.89152746 -23.0703125 30.20703125 C-25.28116036 24.58032385 -25.33008301 19.15276469 -23.875 13.3125 C-21.06073293 7.78819797 -16.95483314 3.58982964 -11.171875 1.19140625 C-7.40472978 0.18713175 -3.87036976 -0.03113512 0 0 Z " fill="#1A1A1A" transform="translate(2115.875,1399.6875)"/>
</svg>
