<svg xmlns="http://www.w3.org/2000/svg" width="2550" height="1762"><path d="M1414.488 494.867h18.469c12.988 0 25.973 0 38.965.004q16.389.006 32.789 0c65.73-.027 131.46.05 197.184 1.129-4.36 7.715-4.36 7.715-6.586 10.402l-1.41 1.735-1.493 1.8a449 449 0 0 0-12.375 15.875 890 890 0 0 1-13.12 17.184 958 958 0 0 0-13 17.004c-4.829 6.488-9.774 12.883-14.759 19.25a1006 1006 0 0 0-13.593 17.887c-3.551 4.773-3.551 4.773-4.645 5.863-2.71.121-5.402.18-8.113.188l-2.637.027c-2.96.023-5.926.047-8.89.066l-6.473.055c-4.742.039-9.48.074-14.223.11q-9.531.068-19.05.156c-32.18.273-64.352.425-96.52.488-8.13.015-16.254.035-24.383.062l-12.172.04c-12.125.042-24.25.058-36.379.058-7.707 0-15.426.02-23.14.055-4.508.011-9.02.023-13.528.011-4.172-.007-8.34 0-12.511.036q-2.263.005-4.532-.012c-8.726-.059-16.015.488-23.375 5.66-2.824 3.078-2.968 4.75-3.433 8.938.21 4.351 1.422 6.824 4.433 10.062 9.301 5.719 19.489 5.117 30.016 4.922q3.467-.065 6.93-.113 5.105-.08 10.21-.16c34.95-.56 69.899-.79 104.86-.825 4.785-.008 9.566-.015 14.351-.031 22.504-.063 44.98-.059 67.461 1.105l2.375.13c43.325 2.288 86.149 13.28 119.715 41.972l2.52 2.113c23.254 20.114 38.66 50.239 41.469 80.887.835 13.89.37 27.477-2.997 41l-.476 1.96c-7.86 31.606-30.41 57.032-57.766 73.669-29.191 17.152-62.379 24.828-95.722 28.621l-2.204.25c-16.539 1.86-32.933 2.656-49.562 2.629l-5.34.008q-5.579-.001-11.164-.008c-4.66-.004-9.32-.004-13.98.008-16.63.015-33.246-.008-49.871-.61-25.211-.898-50.45-.879-75.676-1.047q-7.963-.045-15.926-.109c-55.73-.39-111.457-.492-167.188-.371 1.204-3.754 2.313-6.844 4.653-10.031l1.586-2.188 1.695-2.281 1.762-2.398c4.86-6.586 9.867-13.036 14.968-19.426a850 850 0 0 0 4.004-5.09q7.343-9.405 14.883-18.652a685 685 0 0 0 14.04-17.79 790 790 0 0 1 4.917-6.382l1.293-1.657c3.29-4.226 3.29-4.226 4.77-6.039 1.57-2.16 1.57-2.16 2.804-5.214 2.407-4.72 4.602-8.856 9.868-10.602 7.168-1.219 14.468-.863 21.714-.707q3.705.006 7.403 0c5.312 0 10.629.035 15.937.113 7.723.11 15.45.149 23.176.168 12.586.031 25.176.125 37.77.25 12.125.125 24.257.223 36.379.285l2.253.016 15.637.078 17.574.09 2.16.012q14.607.073 29.208.207c34.132.304 34.132.304 68.261-.117l2.407-.047c21.84-.47 45.304-2.793 61.921-18.563 3.188-3.488 4.95-6.285 4.79-11.226-.934-5.891-3.368-10.004-7.926-13.809-27.493-18.766-74.07-13.176-105.887-13.129q-4.019.005-8.02.004a4656 4656 0 0 0-82.582.77c-138.546 2.53-138.546 2.53-186.046-41.395a487 487 0 0 1-5.375-5.254l-2.157-1.965c-17.82-16.66-30.23-42.418-31.176-66.847-.421-28.91 7.227-53.36 25.333-76.184l1.632-2.066c3.692-4.5 7.871-8.254 12.368-11.934l2.832-2.348c8.171-6.601 16.84-11.836 26.16-16.652l1.832-.957c31.636-16.27 65.89-19.715 100.898-20.578l2.625-.067c24.703-.597 49.406-.543 74.121-.535m-544.246 1.016 3.774-.004q5.117 0 10.234.012c3.695 0 7.39.004 11.086 0 6.383 0 12.773.004 19.152.008q13.857.01 27.707.011 22.483.001 44.953.02c19.965.012 39.93.023 59.891.023 37.332.008 74.656.031 111.988.051-1.379 3.594-2.832 6.371-5.199 9.414l-1.953 2.524-2.094 2.687q-2.197 2.841-4.383 5.691l-2.23 2.887a776 776 0 0 0-9.262 12.422l-1.726 2.355c-1.72 2.34-3.43 4.68-5.145 7.016-7.95 10.863-15.96 21.66-24.152 32.344-3.13 4.086-6.238 8.18-9.274 12.336l-1.613 2.191q-1.454 1.98-2.883 3.988c-3.734 5.075-7.96 10.11-14.066 12.145-2.586.09-5.149.121-7.727.105h-2.418q-4.012-.005-8.03-.023l-5.75-.008c-4.142-.008-8.278-.02-12.411-.027a8286 8286 0 0 0-19.703-.035q-28.02-.04-56.04-.11c-10.316-.023-20.624-.043-30.933-.054q-8.167.002-16.336-.032c-72.707-.453-72.707-.453-133.98 35.516-16.813 17.762-26.063 41.691-25.809 66.043 1.457 24.652 12.88 46.258 31.207 62.625 3.211 2.535 6.543 4.797 9.996 7l2.563 1.707c12.773 8.043 27.316 12.902 41.988 16.172.848.183 1.695.379 2.566.574 18.254 3.75 36.805 3.856 55.356 3.863 3.496 0 6.992.02 10.484.032q9.049.035 18.09.047c8.723.015 17.434.043 26.156.07q21.225.068 42.45.113 28.27.06 56.547.152 52.851.153 105.714.27c-1.187 3.688-2.254 6.758-4.543 9.89l-1.543 2.122-1.66 2.238-1.738 2.367c-6.336 8.594-12.906 17-19.508 25.383l-2.941 3.75c-1.809 2.3-3.614 4.602-5.422 6.898a1754 1754 0 0 0-5.3 6.766l-2.704 3.461-1.36 1.734a429 429 0 0 1-7.5 9.301c-1.663 2.012-3.324 4.024-4.992 6.035-3.71 4.555-6.949 9.278-10.086 14.242-3.914 6.13-7.601 10.598-14.867 12.336-3.293.555-6.472.692-9.816.79l-2.074.062q-3.407.098-6.813.18l-2.398.062c-17.953.473-35.895.54-53.852.512l-7.95-.008q-42.292-.046-84.585-.469-4.217-.04-8.441-.074c-52.391-.441-52.391-.441-76.895-4.762l-3.742-.652c-60.777-10.96-120.418-40.738-156.742-92.113-3.785-5.512-7.207-11.188-10.407-17.051l-1.043-1.898c-23.53-43.54-30.164-98.04-16.332-145.68 8.106-26.57 21.618-49.688 40.34-70.176q2.384-2.638 4.586-5.433c2.508-2.895 5.133-5.317 8.051-7.79a218 218 0 0 0 5.055-4.421c48.254-42.985 115.082-59.883 178.437-59.723M1327.992 95l2.153.258c66.695 7.996 131.261 26.535 191.793 55.742l3.472 1.668c16.63 8.043 32.746 16.715 48.52 26.332l2.554 1.55c27.864 17.036 53.82 36.864 78.493 58.22a337 337 0 0 0 10.308 8.542c15.602 12.704 30.688 27.262 43.613 42.688q1.343 1.551 2.692 3.098a522 522 0 0 1 18.812 22.98 907 907 0 0 0 4.836 6.172c32.965 41.941 64.64 88.39 84.133 138.246l1.246 3.149a109.5 109.5 0 0 1 4.887 16.746l.789 3.77.582 2.839q-17.267.035-34.535.05c-5.34.005-10.688.016-16.035.028-23.157.043-46.274.082-69.407-1.082-3.617-7.148-7.164-14.316-10.55-21.578-12.114-25.809-26.977-50.164-43.434-73.422l-1.648-2.336c-13.43-18.945-27.727-37.418-43.41-54.555a270 270 0 0 1-5.247-5.918c-8.632-9.867-17.675-19.285-26.93-28.562l-1.425-1.434c-5.602-5.625-11.29-11.035-17.32-16.195-1.61-1.45-3.211-2.91-4.809-4.371-5.25-4.727-10.672-9.21-16.187-13.625l-1.563-1.254c-27.516-22.129-57.16-41.348-88.414-57.746l-3.102-1.645c-76.898-40.542-163.832-60.347-281.644-60.605l-2.61.129c-90.636 4.648-182.27 29.969-272.308 86.379-5.086 3.336-10.235 6.578-15.39 9.8l-2.684 1.704c-4.282 2.668-8.196 4.941-13.125 6.238l3.449-3.45a406 406 0 0 0 3.156-3.195c31.461-31.964 72.328-57.02 111.672-77.917q3.906-2.088 7.8-4.211C1046.13 123.172 1119 103.527 1192.02 95l2.109-.254c43.86-5.234 90.023-5.078 133.863.254m389.137 812.879 3.281.101 3.488-.007c3.801.007 7.594.078 11.395.148q3.954.028 7.906.04c6.227.027 12.446.1 18.676.194 7.09.098 14.176.145 21.266.192 14.578.094 29.156.25 43.734.453-.613 2.535-1.234 5.066-1.855 7.602l-.516 2.148c-1.606 6.52-3.93 12.602-6.629 18.75l-1.445 3.348c-8.14 18.586-17.555 36.445-27.723 53.988a5860 5860 0 0 0-3.848 6.687c-8.742 15.254-17.726 30.168-27.972 44.477l-3.235 4.594c-6.746 9.531-13.863 18.68-21.32 27.664-2.016 2.441-4.004 4.906-5.996 7.367a877 877 0 0 1-10.254 12.25l-1.32 1.563c-9.274 10.835-19.192 21.058-29.285 31.124q-2.759 2.745-5.5 5.504c-5.852 5.856-11.723 11.598-18.07 16.934-1.114.969-2.235 1.95-3.348 2.922a520 520 0 0 1-24.641 20.074l-1.852 1.422c-50.41 38.605-106.34 70.035-166.109 91.582l-3.633 1.32c-46.992 16.938-96.601 27.278-146.336 31.684l-2.933.258c-18.168 1.566-36.258 2.105-54.493 2.058q-3.152-.01-6.292-.011c-20.84-.043-41.532-.485-62.23-3.055a860 860 0 0 0-6.282-.758c-22.871-2.73-45.32-7.148-67.719-12.492l-2.016-.484c-40.882-9.825-81.128-24.23-118.957-42.52l-2.386-1.145a443 443 0 0 1-13.61-6.855l-2.043-1.066c-10.46-5.52-20.386-11.704-30.242-18.243a408 408 0 0 0-22.32-13.746c-4.426-2.586-7.95-5.129-11.383-8.945 3.414-1.133 3.828-.937 6.973.41l2.433 1.043 2.66 1.172 2.801 1.219c7.383 3.258 14.563 6.863 21.75 10.531 65.778 33.36 143.871 51.566 217.461 51.832l3.957.02c4.196.011 8.395.023 12.59.027h2.164c22.191.016 44.094-.496 66.137-3.258l3.656-.418c88.152-10.21 185.613-41.656 261.191-103.91 3.184-2.785 6.493-5.39 9.836-7.984 6.008-4.672 11.899-9.477 17.766-14.332 3.625-3.008 7.273-5.997 10.941-8.957l2.184-1.762c1.36-1.094 2.723-2.192 4.09-3.285l1.871-1.512 1.617-1.3c2.375-2.067 4.555-4.294 6.77-6.54l2.386-2.394 2.45-2.473 5.535-5.566 2.789-2.817c7.652-7.68 7.652-7.68 11.789-11.172 2.394-2.027 4.418-3.93 6.418-6.324a293 293 0 0 1 7.875-8.871c34.285-38.113 63.223-84.86 83.52-131.8l1.456-3.368q1.403-3.241 2.77-6.5l1.305-3.031 1.125-2.664 1.547-3.012 1.062-2.23c3.45-6.27 6.07-7.805 13.172-7.895" style="stroke:none;fill-rule:nonzero;fill:#1a1a1a;fill-opacity:1"/><path d="m692.137 909 2.722.004q6.57.017 13.133.016l2.488.007c10.59.008 21.176-.043 31.77-.199 7.043-.098 14.082-.148 21.121-.16 4.5-.016 8.992-.055 13.488-.152 4.473-.094 8.942-.121 13.41-.094a179 179 0 0 0 5.02-.09c12.457-.379 12.457-.379 16.363 3.012 2.793 3.289 4.778 6.93 6.598 10.82.863 1.86 1.809 3.656 2.777 5.465a413 413 0 0 1 4.336 8.36c12.317 24.152 27.696 46.937 44.735 68.011l3.285 4.14c5.777 7.247 11.734 14.255 18.074 21.02a204 204 0 0 1 5.734 6.457c4.375 5.031 9.09 9.727 13.805 14.43 1.52 1.515 3.04 3.031 4.55 4.555 5.337 5.34 10.774 10.511 16.536 15.398 1.133.984 2.258 1.969 3.387 2.957 65.324 56.688 146.386 95.45 357.383 119.023 77.804-5.585 157.988-28.187 223.78-71.039 1.61-1.03 3.223-2.062 4.825-3.09l2.313-1.476a382 382 0 0 1 9.046-5.562l2.68-1.606c2.496-1.234 4.691-1.797 7.438-2.21-2.77 4.483-5.832 8.081-9.746 11.628l-1.723 1.566c-6.809 6.098-14.086 11.496-21.52 16.809-.863.621-1.726 1.234-2.617 1.875-13.465 9.602-27.183 18.652-41.371 27.125l-2.387 1.434c-41.84 24.984-86.636 43.66-133.582 56.566l-3.48.957c-90.281 24.504-187.254 24.445-402.93-48.77-22.437-12.93-43.945-27.414-64.484-43.19l-3.117-2.38c-3.305-2.527-6.586-5.07-9.875-7.617l-1.727-1.336a607 607 0 0 1-25.27-20.664l-2.511-2.168c-10.465-9.223-20.48-19.16-29.477-29.828q-1.46-1.668-2.914-3.324c-6.863-7.809-13.46-15.77-19.8-24.012a877 877 0 0 0-3.731-4.8c-11.25-14.458-21.86-29.317-31.543-44.868l-1.45-2.316c-32.644-52.567-32.644-52.567-35.105-76.41l-.254-2.43Zm493.824-748.309 3.754.004c20.242.047 40.203.739 60.293 3.305l2.066.266c76.906 9.918 150.008 34.543 215.883 75.73l3.105 1.941c23.786 14.93 23.786 14.93 33.887 23.063l-2.004.996a74 74 0 0 1-6.437-2.558l-2.098-.922c-5.742-2.598-11.297-5.504-16.863-8.461-53.774-28.508-113.27-43.098-173.559-49.055l-3.195-.324c-12.328-1.055-24.73-.918-37.102-.926l-3.718-.004c-19.508.02-38.598.691-57.957 3.254l-4.055.52c-20.262 2.628-40.106 6.523-59.93 11.48l-3.672.918C1062.246 238.266 994.027 273.109 937.082 321l-1.578 1.32c-16.317 13.688-32.777 28.168-46.54 44.473a287 287 0 0 1-4.648 5.32c-9.046 10.172-17.199 20.899-25.222 31.883l-1.586 2.152c-18.602 25.157-32.453 52.954-46.399 80.852H692.137c1.125-9.016 1.125-9.016 2.457-12.2l.914-2.19 1.004-2.298 1.07-2.484c17.145-38.984 41.965-74.73 68.531-107.828l2.364-2.953c8.32-10.29 17.28-19.852 26.632-29.207l3.106-3.117c2.16-2.168 4.316-4.328 6.48-6.489 2.73-2.746 5.47-5.488 8.2-8.238q3.203-3.217 6.414-6.43c1.007-1.007 2.015-2.02 3.02-3.03a230 230 0 0 1 20.773-18.54l4.312-3.445c31.024-24.45 64.39-44.844 99.664-62.551l2.98-1.508c72.532-36.41 154.997-54.054 235.903-53.804" style="stroke:none;fill-rule:nonzero;fill:#0486cc;fill-opacity:1"/><path d="M1741.89 496h103.977c.613 37.77.613 37.77.766 49.68l.031 2.48c.367 28.883.348 57.762.34 86.64q-.01 9.042-.008 18.095v2.648l.008 5.348q0 24.662-.012 49.32-.001 21.07.004 42.129.012 27.367 0 54.722v2.63q-.002 9.043.008 18.097-.001 10.999-.008 21.992v11.18c.008 4.05 0 8.105-.004 12.156l.004 3.485c-.02 9.527-.598 18.84-1.129 28.398h-103.976ZM474.189 1398h44.988l1 61 8.004-7.004c3.043-1.738 3.043-1.738 5.746-2.871l2.734-1.18c10.29-3.867 23.75-3.293 33.899.743 9.902 4.98 15.945 12.343 19.882 22.687 6.02 20.016 5.305 42.816-3.785 61.746-6.511 12.074-15.437 18.707-28.238 23.191-10.074 2.126-21.688 1.825-30.563-3.773-2.757-2.027-5.265-4.121-7.68-6.543l-1 8.004h-44.987Zm48.988 85c-4.844 6.285-5.196 11.176-5.25 18.813l-.063 2.367c-.047 6.789 1.25 11.449 5.813 16.691 4.023 3.422 7.351 3.484 12.5 3.133 4.523-1.945 7.164-5.027 9.992-9.004 1.77-5.031 2.336-9.707 2.316-15l.047-2.04c.004-6.48-1.593-10.976-5.926-15.835-3.77-3.293-6.238-3.473-11.117-3.402-3.62.437-5.605 1.882-8.312 4.277m1505.648-85h44.988v156h-44.988l-1-9-1.617 1.387c-10.836 8.926-21.484 11.625-35.375 10.613-8.234-1.594-14.812-4.332-20.996-10.004l-1.863-1.586c-10.313-9.394-13.625-23.805-14.332-37.285-.336-17.402 2.84-36.559 15.433-49.676 12.352-10.18 24.961-13.883 40.758-12.449 7.984 1.68 11.563 4.488 17.992 10Zm-25.469 86.824c-3.566 5.711-4.007 11.235-4.09 17.801l-.038 2.422c.097 5.746 1.441 10.133 4.605 14.953 3.219 3.023 5.95 3.922 10.367 4.25 5.383-.375 7.555-2.18 11.313-5.937 5.547-7.172 4.937-16.692 4.312-25.317-.98-5.601-3.469-9.441-7.972-12.926-6.946-3.668-13.774-1.078-18.497 4.754m-372.437-86.82h43.988V1554h-43.988l-1-10-3.313 3.184c-8.828 7.75-18.636 10.21-30.132 10.097-11.48-.902-21.274-5.61-29.23-13.843-12.313-14.981-12.524-34.024-11.31-52.438 1.766-14.121 8.594-26.418 18.997-36 11.16-8.437 23.328-10.45 36.988-9 8.023 1.688 11.539 4.46 18 10ZM1604.926 1485c-4.856 7.934-5.18 17.656-3.504 26.672 1.46 4.91 3.418 8.058 7.504 11.332 4.695 1.566 8.52 1.543 13.183-.188 5.133-3.312 7.25-7.004 8.809-12.812.32-3.133.367-6.234.375-9.379l.07-2.457c.028-5.86-1.133-10.29-4.445-15.168-3.309-3.082-6.004-4.277-10.438-4.629-5.273.254-8.242 2.68-11.554 6.629m-668.594-81.375 3.813.02c12.523.187 23.886 1.91 35.925 5.351V1448l-17.996-7c-6.336-1.41-10.867-2.297-17.125-2.309l-2.004-.054c-5.066-.004-8.441 1.09-12.867 3.363-2.031 2.453-1.996 3.746-1.996 6.938 1.637 5.011 5.227 7.152 9.75 9.476a503 503 0 0 0 9.93 4.461c17.496 7.668 31.847 15.71 39.308 34.125 3.489 10.176 1.489 23.566-3 33-6.226 11.746-15.93 18.04-27.996 23-23.246 7.086-51.433 6.36-73.98-3-1-1-1-1-1.114-4.875q-.001-2.595.016-5.191l.004-2.754c.004-2.91.02-5.825.031-8.743l.016-5.914q.018-7.26.047-14.52c2.968 1.157 5.847 2.364 8.668 3.837 12.363 6.363 26.199 13.433 40.554 9.558 3.555-1.418 3.555-1.418 5.766-4.398.606-5.664.606-5.664-1.75-10.629-5.508-4.598-12.64-7.3-19.2-10.023-15.308-6.38-27.327-14.149-34.097-29.832-4.289-11.422-2.879-25.551 2.059-36.516 1.726-2.973 3.691-5.46 5.996-8.004l1.379-1.754c3.718-4.328 8.183-6.898 13.18-9.496l1.87-.992c10.91-5.363 22.836-6.266 34.813-6.129m-601.113 4.371V1450c-9-3-9-3-11.766-3.945-11.7-3.48-27.613-4.555-38.937.636-9.88 5.66-14.766 12.079-18.125 23.07-2.754 12.427-.594 24.305 6.004 35.141 5.175 6.887 13.535 10.703 21.835 12.098 15.016 1.238 26.747-2.25 40.989-6.996V1551c-29.293 7.816-59.762 10.555-87.106-4.75-15.261-9.605-25.066-23.867-29.504-41.285-1.554-7.059-1.902-13.88-1.859-21.09l.02-3.836c.402-20.742 6.789-39.547 21.617-54.387 24.96-23.215 64.851-28.316 96.832-17.656m6 40.004h48.992l7.215 27.656c6.512 24.914 6.512 24.914 8.777 35.344 1.73-3.145 2.652-6.168 3.492-9.656l.84-3.438.887-3.695 1.398-5.746c.653-2.684 1.301-5.363 1.95-8.047 1.132-4.7 2.273-9.395 3.414-14.098.609-2.5 1.218-5.004 1.816-7.507l.832-3.415.73-3.02c.637-2.378.637-2.378 1.633-4.378h42.993c-1.125 7.875-1.125 7.875-2.633 12.063l-1.02 2.863-1.117 3.07-1.176 3.293q-1.922 5.36-3.863 10.715a2108 2108 0 0 0-2.7 7.48q-2.097 5.821-4.195 11.641a3641 3641 0 0 0-8.402 23.438q-2.645 7.41-5.3 14.824-1.26 3.504-2.5 7.02c-15.735 44.464-15.735 44.464-35.95 55.222-15.23 6.684-31.367 5.117-47.113 1.371l-2.004-1v-34l9 3c6.734 1.688 12.976 2.031 19.191-1.473 3.559-3.015 5.633-7.054 6.801-11.527-.434-5.906-2.289-10.664-4.617-16.016l-1.13-2.644c-1.218-2.867-2.452-5.727-3.687-8.59l-2.562-5.992c-1.316-3.102-2.645-6.207-3.965-9.305a4051 4051 0 0 1-12.8-30.344 3037 3037 0 0 0-3.442-8.218c-1.66-3.973-3.313-7.942-4.965-11.918-.734-1.758-1.469-3.524-2.207-5.285l-1.121-2.708-.899-2.175c-.593-1.809-.593-1.809-.593-4.805m876.793 0H1263l.113 14.703c.032 3.07.063 6.149.098 9.223.055 4.879.105 9.762.137 14.64q.04 5.908.117 11.809.03 2.255.035 4.504.019 3.157.066 6.309l.036 3.628c.437 3.512 1.277 5.375 3.402 8.18 3.723 2.488 5.586 2.387 9.996 2.008 4.707-1.93 6.07-4.406 8-9.004.465-3.266.465-3.266.43-6.742l.03-1.953c.032-2.11.04-4.215.052-6.332.015-1.465.035-2.942.05-4.407.047-3.859.079-7.718.106-11.574.035-4.633.094-9.27.148-13.906.075-7.031.13-14.059.184-21.086h44.988v106H1286l-1-13-2.879 3.625c-6.367 7.273-14.61 11.938-24.312 12.59-11.594.316-20.766-1.652-29.797-9.219-7.157-7.117-9.793-18.777-10.121-28.566l.004-3.996v-2.22c0-2.398.011-4.808.02-7.206l.003-5.02c.004-4.386.016-8.777.027-13.164q.013-7.914.02-15.824c.012-8 .031-16 .047-24m708.004 3.402c8.152 6.254 11.687 15.356 13.414 25.207.84 6.856.656 13.754.61 20.653l-.009 4.93c-.008 4.288-.027 8.581-.047 12.867a4098 4098 0 0 0-.046 15.5c-.024 7.812-.06 15.629-.094 23.441h-44.992l-.114-13.973c-.027-2.933-.058-5.859-.093-8.789-.051-4.648-.102-9.293-.133-13.937q-.046-5.623-.121-11.246a781 781 0 0 1-.036-4.278c.141-10.347.141-10.347-3.5-19.777-4.316-2.879-8.418-2.207-13.375-1.812-1.878.742-1.878.742-2.804 3.187l-.813 2.625-1 3a136 136 0 0 0-.203 6.309l-.062 3.941c-.02 1.422-.035 2.844-.055 4.266l-.063 4.355c-.05 3.82-.101 7.645-.148 11.465q-.094 6.878-.195 13.762-.14 10.453-.274 20.902h-44.988v-106h44.988l1 13 3.246-3.625c12.993-13.066 34.375-16.023 49.907-5.973m318.757 4.602c8.997 7.758 11.649 19.68 12.997 30.996.253 5.277.234 10.547.195 15.828l-.008 4.457c-.012 3.867-.027 7.73-.047 11.598-.027 4.66-.035 9.324-.047 13.984-.023 7.043-.058 14.09-.093 21.133h-40.989l-1-12-1.937 2.625c-5.692 6.766-13.383 10.922-22.059 12.375-11.3.938-20.527.285-29.367-7.184-6.79-6.546-9.676-13.257-9.918-22.652-.098-11.14 1.34-20.14 9.398-28.457 10.98-9.91 26.125-11.328 40.262-12.957q2.14-.26 4.285-.523 5.168-.631 10.336-1.227c-3.601-5.59-5.797-8.23-12.37-9.812-14.56-1.282-28.532 4.199-41.618 9.812v-30c7.879-3.375 7.879-3.375 11.371-4.133l2.297-.504 2.328-.488 2.328-.512c20.344-4.394 46.352-6.035 63.656 7.637m-37.18 51.25-2.288.332c-5.125.844-8.457 2.152-12.52 5.418-1.414 2.824-1.246 4.867-1 7.996.848 2.86.848 2.86 2.996 5.004 4.477 1.824 7.535 2.48 12.188 1.063 4.297-1.895 6.734-4.915 8.812-9.063.899-2.812 1.114-5.305 1.059-8.25l-.059-3.75c-3.047 0-6.176.762-9.187 1.246m-713.332-61.559 2.793.016c13.695.246 25.355 3.942 35.632 13.297 14.61 15.55 13.25 34.21 13.25 55l-63.988 1c3.465 5.777 6.559 8.96 13 11 11.371 2.777 24.93 1.227 35.746-3.102 2.243-.894 2.243-.894 5.243-.894V1551c-20.524 6.316-42.993 9.477-63.981 3l-2.75-.844c-11.766-4.16-21.762-13.433-27.125-24.656-6.926-15.7-5.758-34.613-.125-50.5 6.242-14.516 16.324-22.766 30.543-29.176 7.227-2.422 14.152-3.183 21.762-3.137m-7.313 30.313c-4.68 4.543-4.402 6.82-6 14h25c0-6.68-.156-10.05-4.754-14.812-5.3-2.797-9.558-2.989-14.246.812m-791.402-20.25c11.734 9.723 15.941 22.477 17.586 37.246V1514h-64.985c3.79 7.172 3.79 7.172 9.497 10.438l2.218.87c14.207 4.305 28.328.176 42.27-3.304V1551c-22.668 6.98-49.227 10.574-71.418-.25-13.024-7.043-20.547-16.652-24.848-30.902a58 58 0 0 1-1.71-11.844l-.122-2.102c-.48-15.55 3.957-31.035 13.934-43.093 19.11-20.32 55.035-23.434 77.578-7.059M653.148 1476c-4.234 4.914-4.128 7.023-5 14h24.997c-.426-8.016-.426-8.016-4-14-6.024-3.715-9.997-3.754-15.997 0m427.895-22c12.594 9.645 17.77 20.379 19.996 36v24h-64.984c3.793 7.172 3.793 7.172 9.496 10.438l2.222.87c14.207 4.305 28.325.176 42.27-3.304V1551c-24.8 7.633-51.152 10.148-74.863-2.086-10.723-6.582-17.485-16.539-21.235-28.469-3.894-16.578-1.656-35.058 6.43-49.882 8.473-13.504 20.742-20.2 35.934-24.145 15.218-2.297 31.597-.867 44.734 7.582m-40.988 23c-2.711 4.305-4 7.906-4 13h24.996c-.653-8.676-.653-8.676-5-15-5.793-3.187-11.063-2.316-15.996 2m162.965-27v35c-6-2-6-2-8.063-2.852-8.664-3.457-19.3-3.691-28.031-.261-5.078 2.972-8.11 7.597-9.899 13.117-.836 7.625-.8 14.723 4 20.996 4.368 4.91 9.196 6.637 15.649 7.25 8.082.336 14.77-1.629 22.344-4.25q1.998-.518 3.996-1c.129 4.64.218 9.29.277 13.938.027 1.574.059 3.156.102 4.734.058 2.273.09 4.543.109 6.816l.082 2.14c0 2 0 2-.57 5.372-2.895 2.328-5.633 3.39-9.246 4.125l-2.079.441c-19.324 3.11-41.707 3.754-58.66-7.57-12.097-9.422-20.148-20.574-22.613-35.871-1.594-15.113.648-31.465 9.863-43.934 18.293-21.484 56.532-31.296 82.735-18.191m554.87-44h44.993v148h-44.996Zm-327.917 41c.992 1 .992 1 1.11 4.695 0 1.645-.009 3.29-.016 4.938l-.008 2.617c-.004 2.77-.02 5.54-.032 8.316l-.015 5.621c-.008 4.602-.028 9.211-.047 13.813l-1.86-.426-2.445-.554-2.422-.551c-7.218-1.489-13.855-1.133-20.265 2.531-3.762 2.926-5.719 6.46-7 11-.461 4.238-.489 8.457-.508 12.715l-.059 3.672c-.054 3.843-.086 7.699-.12 11.55q-.049 3.933-.102 7.852c-.086 6.402-.149 12.809-.211 19.211h-44.989v-106h44.989l1 14 2.437-3.625c4.934-6.535 11.164-10.773 19.282-12.203 3.812-.285 7.542 0 11.28.828m-623.859 0c1.004 1 1.004 1 1.114 4.695q.001 2.467-.016 4.938l-.004 2.617q-.008 4.153-.027 8.316l-.016 5.621c-.012 4.602-.027 9.211-.047 13.813l-1.863-.426-2.445-.554-2.426-.551c-7.219-1.489-13.852-1.133-20.266 2.531-3.758 2.926-5.715 6.46-6.996 11-.465 4.238-.488 8.457-.515 12.715l-.055 3.672c-.05 3.843-.086 7.699-.117 11.55q-.051 3.933-.102 7.852c-.09 6.402-.148 12.809-.21 19.211h-44.993v-106h44.992l1 14 2.438-3.625c4.933-6.535 11.156-10.773 19.277-12.203a38.4 38.4 0 0 1 11.277.828m1287.7 1h44.988v106h-44.988Zm21.867-48.312 2.148.011c7.535.168 13.57 1.742 18.977 7.301 4.262 5.898 4.996 11.875 3.996 19-1.598 5.809-4.867 9.453-9.79 12.816-7.452 4.008-16.132 4.118-24.202 2.121-6.13-2.027-10.965-5.359-14.188-11.042-2.21-5.625-2.258-11.06-.805-16.895 2.813-5.523 6.918-9.723 12.696-12.117 3.765-1.004 7.3-1.223 11.172-1.196" style="stroke:none;fill-rule:nonzero;fill:#1a1a1a;fill-opacity:1"/></svg>